<svg xmlns="http://www.w3.org/2000/svg" version="1.1" xmlns:xlink="http://www.w3.org/1999/xlink" width="74" height="74"><svg xmlns="http://www.w3.org/2000/svg" width="74" height="74">
    <defs>
        <style>.a{fill:#402121;}.b{fill:#f97910;}</style>
    </defs>
    <path class="b" d="M369.409,304.677c-20.884,3.23-38.339,17.529-38.339,37.551a31.78,31.78,0,0,0,12.158,25.657,3.287,3.287,0,0,0,3.986.056,110.4,110.4,0,0,1,10.975-7.234c1.156-4.212,2.356-13.165-1.886-16.94-2.692-2.393-6.975-2.821-6.975-2.821l-.167-3.32,6.639,2.49-2.821-7.469H355.8s3.486,9.965,5.478,10.125,5.979-17.1,5.979-17.1h2.989l-1.993,4.982,4.194.167v1.826l-4.857,1.328a2.5,2.5,0,0,0-.332,2.49c.5,1.66,1.913,3.153,5.189,2.655s6.762-1.162,6.762-1.162v1.66s-10.346,2.44-12.282,5.979c-1.257,2.293-.854,6.984-.186,10.913a41.336,41.336,0,0,1,18.3-3.416c6.7.463,10.268,8.572,2.493,11.792-1.139.47,3.288-4.356-.578-6.07-3.274-1.453-7.9-.349-9.3,5.006-.774,2.965.084,5.053,1.779,6.521a7.747,7.747,0,0,0,8.622.924c10.345-5.372,16.918-15.232,16.918-28.146C404.982,323.1,390.906,301.352,369.409,304.677Zm-31.383,27.848c2.75-1.627,5.428-.552,6.631,2.42C341.931,336.567,339.232,335.518,338.027,332.526Zm3.458,11.054c-.642-3.132,1.247-5.311,4.448-5.478C346.576,341.2,344.706,343.408,341.484,343.579Zm5.96-12.054c-3.167.171-5.071-2.01-4.75-5.221,3.191-.171,5.065,2.024,4.75,5.214Zm4.323-1.472c-2.552-1.882-2.634-4.776-.345-7.049,2.568,1.9,2.616,4.782.345,7.042Zm4.332.5c-1.341-2.873-.03-5.453,3.069-6.356,1.344,2.893.007,5.449-3.069,6.349Zm4.7-11c3.149-.544,5.267,1.414,5.337,4.618-3.126.54-5.276-1.4-5.34-4.625Zm7.98,3.88c-1.5-2.793-.337-5.444,2.7-6.518,1.5,2.811.313,5.439-2.708,6.511Zm4.555,2.168c-.024-3.17,2.242-4.972,5.435-4.5.009,3.189-2.271,4.958-5.442,4.5Zm9.791,3.379c1.234,2.948-.2,5.453-3.307,6.236-1.24-2.93.169-5.459,3.3-6.244Zm-3.429,13.1c3.029-.938,5.409.712,5.879,3.906-3.062.931-5.414-.74-5.886-3.912Zm1.448-3.509c1.969-2.487,4.864-2.47,7.058-.1-2,2.5-4.883,2.446-7.065.1Z" transform="translate(-331.07 -304.338)"></path>
</svg><style>@media (prefers-color-scheme: light) { :root { filter: none; } }
@media (prefers-color-scheme: dark) { :root { filter: none; } }
</style></svg>