<svg xmlns="http://www.w3.org/2000/svg" width="358.486" height="327.879" viewBox="0 0 358.486 327.879"><defs><style>.a{fill:#f4d9b4;}</style></defs><path class="a" d="M470.663,713.62c8.25-30.1,19.611-104.644-10.7-131.622-19.237-17.1-49.846-20.162-49.846-20.162l-1.19-23.723,47.445,17.792L436.205,502.53h20.152s24.913,71.209,39.144,72.348S538.228,452.7,538.228,452.7H559.59l-14.242,35.6,29.959,1.19V502.55l-34.72,9.522s-5.931,5.931-2.37,17.8,13.672,22.532,37.08,18.972,48.32-8.3,48.32-8.3v11.861s-73.925,17.436-87.77,42.725c-8.982,16.388-6.1,49.907-1.333,77.984,2.983,19.519,2.686,25.117,3.727,40.5C538.839,721.355,469.832,716.936,470.663,713.62ZM329.26,501.665c19.654-11.627,38.788-3.947,47.384,17.294C357.164,530.535,337.886,523.048,329.26,501.665Zm24.71,78.94c-4.588-22.38,8.921-37.954,31.79-39.144,4.608,22.187-8.769,37.975-31.79,39.144Zm42.593-86.142c-22.634,1.221-36.235-14.364-33.946-37.313C385.423,455.979,398.811,471.666,396.563,494.463Zm30.894-10.518c-18.24-13.448-18.82-34.129-2.462-50.375C443.347,447.17,443.693,467.79,427.457,483.944Zm30.956,3.54c-9.583-20.528-.214-38.972,21.932-45.421C489.948,462.785,480.406,481.055,458.413,487.484Zm33.57-78.594c22.512-3.886,37.639,10.1,38.147,33-22.349,3.906-37.71-9.949-38.168-33Zm57.028,27.731c-10.732-19.959-2.4-38.9,19.328-46.581,10.752,20.142,2.238,38.921-19.348,46.581Zm32.553,15.493c-.173-22.665,16.022-35.533,38.839-32.176.071,22.838-16.225,35.482-38.89,32.176Zm69.907,24.15c8.82,21.068-1.414,38.971-23.631,44.566C619.049,499.946,629.09,481.869,651.47,476.264Zm-24.506,93.589c21.648-6.7,38.656,5.086,42.013,27.914-21.82,6.7-38.626-5.239-42-27.9Zm10.346-25.076c14.069-17.772,34.76-17.65,50.436-.743-14.211,17.884-34.831,17.528-50.426.753Z" transform="translate(-329.26 -390.04)"/></svg>