<svg xmlns="http://www.w3.org/2000/svg" xmlns:xlink="http://www.w3.org/1999/xlink" width="775" height="643" viewBox="0 0 775 643"><defs><style>.a{fill:none;}.b{clip-path:url(#a);}.c{fill:#fcf5eb;}.d{fill:#f9eede;}.e{fill:#f4d9b4;}</style><clipPath id="a"><path class="a" d="M0,0H775V643H0Z" transform="translate(0 1042)"/></clipPath></defs><g class="b" transform="translate(0 -1042)"><path class="c" d="M423.34,1148.854A2900.3,2900.3,0,0,1,712.226,958.56c48-30.093,127.063-70.213,224.78-110.2,158.69-64.555,321.462-100.839,481.277-89.867,176.252,12.17,270.088,225.492,65.6,310.192-29.956,12.357,86.46-114.581-15.24-159.664-86.123-38.231-207.706-9.174-244.514,131.655-20.407,78.035,21.705,150.367,66.3,188.972,36.082,34.176-86.447-.636-404.518,11.291C607.786,1241.726,403.728,1163.424,423.34,1148.854Z" transform="translate(-834.892 440.923)"/><path class="d" d="M413.919,993.418c44.147-33.017,99.4-112.85,147.166-140.376,22.929-14.374,60.692-33.538,107.367-52.637C744.251,769.57,822,752.239,898.336,757.48c84.187,5.813,129.009,107.707,31.336,148.164-14.309,5.9,41.3-54.73-7.28-76.264C881.255,811.118,823.18,825,805.6,892.265c-9.748,37.274,2.927,76.383,24.229,94.823,17.235,16.324,3.815,9.335-148.112,15.032C548.866,1002.5,404.552,1000.377,413.919,993.418Z" transform="translate(-489.892 683.12)"/><path class="e" d="M586.756,949.031c14.733-53.755,30.048-168.006-24.089-216.184-34.354-30.538-89.017-36.006-89.017-36.006l-2.126-42.365,84.73,31.774-36.007-95.321h35.988s44.49,127.167,69.906,129.2,76.3-218.183,76.3-218.183h38.15l-25.433,63.584,53.5,2.125v23.308l-62,17s-10.591,10.591-4.233,31.792S726.839,680,768.641,673.641s86.292-14.824,86.292-14.824V680S722.916,711.137,698.19,756.3c-16.041,29.267-10.9,89.126-2.38,139.266,5.327,34.858,4.8,44.855,6.655,72.335C703.533,981.714,580.479,981.072,586.756,949.031ZM329.26,589.384c35.1-20.765,69.27-7.049,84.621,30.884C379.091,640.941,344.665,627.57,329.26,589.384Zm44.127,140.974c-8.193-39.967,15.932-67.78,56.771-69.906,8.229,39.622-15.66,67.816-56.771,69.906Zm76.064-153.836c-40.421,2.18-64.71-25.651-60.622-66.636C429.559,507.8,453.466,535.81,449.451,576.522Zm55.172-18.784c-32.573-24.016-33.609-60.949-4.4-89.962C533,492.065,533.618,528.888,504.624,557.737Zm55.281,6.322c-17.113-36.66-.381-69.6,39.168-81.115C616.222,519.95,599.182,552.578,559.905,564.059ZM619.855,423.7c40.2-6.94,67.217,18.039,68.125,58.933-39.912,6.976-67.344-17.767-68.161-58.933ZM721.7,473.226c-19.166-35.643-4.288-69.47,34.517-83.186,19.2,35.97,4,69.506-34.553,83.186Zm58.133,27.668c-.309-40.476,28.613-63.457,69.361-57.462.127,40.784-28.976,63.366-69.452,57.461Zm124.842,43.128c15.75,37.623-2.525,69.6-42.2,79.588C846.776,586.314,864.707,554.031,904.674,544.021ZM860.91,711.155c38.659-11.972,69.034,9.083,75.029,49.85-38.968,11.972-68.979-9.356-75.01-49.831Zm18.476-44.781c25.125-31.737,62.076-31.519,90.071-1.326-25.379,31.937-62.2,31.3-90.053,1.344Z" transform="translate(-635.208 708.96)"/></g></svg>