<svg xmlns="http://www.w3.org/2000/svg" width="285" height="213.539" viewBox="0 0 285 213.539"><defs><style>.a{fill:#fcf5eb;}.b{fill:#f4d9b4;}.c{fill:#fff;}.d{fill:#e6e6e6;}.e{fill:#3f3d56;}.f{fill:#ccc;}.g{fill:#ff6584;}.h{fill:#f2f2f2;}.i{fill:#6c63ff;}.j{fill:#fffbf6;}.k{fill:#ffd95e;}.l{fill:#99ad23;}.m{fill:#2d2208;}.n{fill:#f97910;}.o{fill:#402121;}</style></defs><g transform="translate(0 -0.004)"><path class="a" d="M349.819,297.679H135.307A12.322,12.322,0,0,1,123,285.372v-114.5a12.321,12.321,0,0,1,12.307-12.307H349.819a12.321,12.321,0,0,1,12.307,12.307v114.5A12.321,12.321,0,0,1,349.819,297.679ZM135.307,159.314a11.574,11.574,0,0,0-11.562,11.562v114.5a11.574,11.574,0,0,0,11.562,11.562H349.819a11.575,11.575,0,0,0,11.561-11.562v-114.5a11.575,11.575,0,0,0-11.561-11.562Z" transform="translate(-77.127 -99.427)"/><path class="a" d="M364.869,303.777H150.357A3.361,3.361,0,0,1,147,300.421v-114.5a3.361,3.361,0,0,1,3.357-3.357H364.869a3.361,3.361,0,0,1,3.357,3.357v114.5A3.361,3.361,0,0,1,364.869,303.777ZM150.357,183.314a2.614,2.614,0,0,0-2.611,2.611v114.5a2.614,2.614,0,0,0,2.611,2.611H364.869a2.613,2.613,0,0,0,2.611-2.611v-114.5a2.613,2.613,0,0,0-2.611-2.611Z" transform="translate(-92.176 -114.476)"/><path class="a" d="M220.774,189.847,13.423,134.882a12.321,12.321,0,0,1-8.743-15.05L34.018,9.158A12.322,12.322,0,0,1,49.068.415L256.419,55.379a12.321,12.321,0,0,1,8.743,15.05L235.824,181.1A12.322,12.322,0,0,1,220.774,189.847Z" transform="translate(-2.677)"/><path class="b" d="M220.774,189.847,13.423,134.882a12.321,12.321,0,0,1-8.743-15.05L34.018,9.158A12.322,12.322,0,0,1,49.068.415L256.419,55.379a12.321,12.321,0,0,1,8.743,15.05L235.824,181.1A12.322,12.322,0,0,1,220.774,189.847ZM48.877,1.136A11.575,11.575,0,0,0,34.739,9.349L5.4,120.023a11.575,11.575,0,0,0,8.213,14.138l207.351,54.965a11.574,11.574,0,0,0,14.138-8.213L264.441,70.238A11.575,11.575,0,0,0,256.228,56.1Z" transform="translate(-2.677)"/><path class="b" d="M238.116,196.244,30.766,141.279a3.36,3.36,0,0,1-2.384-4.1L57.719,26.5a3.361,3.361,0,0,1,4.1-2.385L269.174,79.081a3.361,3.361,0,0,1,2.384,4.1L242.221,193.859A3.361,3.361,0,0,1,238.116,196.244ZM61.632,24.837a2.614,2.614,0,0,0-3.192,1.855L29.1,137.365a2.614,2.614,0,0,0,1.855,3.192l207.351,54.965a2.614,2.614,0,0,0,3.192-1.855L270.838,82.994a2.614,2.614,0,0,0-1.855-3.192Z" transform="translate(-17.726 -15.049)"/><path class="c" d="M226.819,338.679H12.307A12.321,12.321,0,0,1,0,326.372v-114.5a12.321,12.321,0,0,1,12.307-12.307H226.819a12.321,12.321,0,0,1,12.307,12.307v114.5A12.321,12.321,0,0,1,226.819,338.679Z" transform="translate(0 -125.136)"/><path class="d" d="M218.129,483.236H79.6c-.173,0-.346,0-.518-.013l65.517-36.9c1.248-.717,4.046-.969,6.251-.564a5.667,5.667,0,0,1,1.734.564l43.97,24.761,2.106,1.185Z" transform="translate(-49.591 -279.39)"/><path class="d" d="M367.643,501.52H247.83l23.217-10.965,1.671-.79,30.255-14.29c1.983-.936,6.755-.995,9.087-.176q.235.083.436.176Z" transform="translate(-155.401 -297.674)"/><path class="e" d="M13.562,201.568A11.574,11.574,0,0,0,2,213.13v114.5a11.574,11.574,0,0,0,11.562,11.561H228.074a11.575,11.575,0,0,0,11.562-11.561V213.13a11.575,11.575,0,0,0-11.562-11.562Z" transform="translate(-1.254 -126.39)"/><path class="f" d="M241.869,344.777H27.357A3.361,3.361,0,0,1,24,341.421v-114.5a3.361,3.361,0,0,1,3.357-3.357H241.869a3.361,3.361,0,0,1,3.357,3.357v114.5A3.361,3.361,0,0,1,241.869,344.777ZM27.357,224.314a2.614,2.614,0,0,0-2.611,2.611v114.5a2.614,2.614,0,0,0,2.611,2.611H241.869a2.614,2.614,0,0,0,2.611-2.611v-114.5a2.614,2.614,0,0,0-2.611-2.611Z" transform="translate(-15.049 -140.185)"/><circle class="g" cx="23.087" cy="23.087" r="23.087" transform="translate(146.374 81.253) rotate(-45)"/><ellipse class="h" cx="29.241" cy="36.6" rx="29.241" ry="36.6" transform="translate(159.434 92.107)"/><path class="f" d="M503.546,325.365h.08l1.446,82.9h-3.053Z" transform="translate(-314.79 -204.017)"/><path class="f" d="M510.791,471.876h0a.723.723,0,0,1-.3.976l-4.194,2.208-.674-1.279,4.194-2.208A.723.723,0,0,1,510.791,471.876Z" transform="translate(-317.049 -295.644)"/><ellipse class="h" cx="29.241" cy="36.6" rx="29.241" ry="36.6" transform="translate(75.369 92.107)"/><path class="f" d="M283.127,381.619h0a.723.723,0,0,0-.977-.3l-2.928,1.541-1-57.493h-.08l-1.526,82.9h3.052l-.415-23.79,3.573-1.882A.723.723,0,0,0,283.127,381.619Z" transform="translate(-173.45 -204.017)"/><path class="i" d="M330.7,118.937c20.463,0,37.095,38.557,37.095,64.17s-16.589,46.377-37.051,46.377-37.051-20.763-37.051-46.377S310.237,118.937,330.7,118.937Z" transform="translate(-184.159 -74.577)"/><path class="e" d="M396.378,336.271a.916.916,0,0,0-1.237-.384h0l-3.71,1.953-1.271-72.849h-.1l-1.934,105.046h3.868l-.526-30.145,4.528-2.384a.916.916,0,0,0,.384-1.237Z" transform="translate(-243.373 -166.16)"/><path class="c" d="M228.819,336.679H14.307A12.322,12.322,0,0,1,2,324.372v-114.5a12.321,12.321,0,0,1,12.307-12.307H228.819a12.321,12.321,0,0,1,12.307,12.307v114.5A12.322,12.322,0,0,1,228.819,336.679Z" transform="translate(-1.254 -123.882)"/><path class="j" d="M220.129,481.236H81.6c-.173,0-.346,0-.518-.013l65.517-36.9c1.248-.717,4.046-.969,6.251-.564a5.667,5.667,0,0,1,1.734.564l43.97,24.761,2.106,1.185Z" transform="translate(-50.845 -278.136)"/><path class="a" d="M369.643,499.52H249.83l23.217-10.965,1.671-.79,30.255-14.29c1.983-.936,6.755-.995,9.087-.176q.235.083.436.176Z" transform="translate(-156.655 -296.42)"/><path class="b" d="M228.819,336.679H14.307A12.322,12.322,0,0,1,2,324.372v-114.5a12.321,12.321,0,0,1,12.307-12.307H228.819a12.321,12.321,0,0,1,12.307,12.307v114.5A12.322,12.322,0,0,1,228.819,336.679ZM14.307,198.314A11.574,11.574,0,0,0,2.746,209.875v114.5a11.574,11.574,0,0,0,11.562,11.562H228.819a11.575,11.575,0,0,0,11.562-11.562v-114.5a11.575,11.575,0,0,0-11.562-11.562Z" transform="translate(-1.254 -123.882)"/><path class="a" d="M243.869,342.778H29.357A3.361,3.361,0,0,1,26,339.421v-114.5a3.361,3.361,0,0,1,3.357-3.357H243.869a3.361,3.361,0,0,1,3.357,3.357v114.5A3.361,3.361,0,0,1,243.869,342.778ZM29.357,222.314a2.614,2.614,0,0,0-2.611,2.611v114.5a2.614,2.614,0,0,0,2.611,2.611H243.869a2.614,2.614,0,0,0,2.611-2.611v-114.5a2.614,2.614,0,0,0-2.611-2.611Z" transform="translate(-16.303 -138.931)"/><circle class="k" cx="28.087" cy="28.087" r="28.087" transform="translate(139.302 80.881) rotate(-45)"/><ellipse class="l" cx="29.241" cy="36.6" rx="29.241" ry="36.6" transform="translate(160.18 91.361)"/><path class="m" d="M505.546,323.365h.08l1.446,82.9h-3.053Z" transform="translate(-316.044 -202.763)"/><path class="m" d="M512.791,469.876h0a.723.723,0,0,1-.3.976l-4.194,2.208-.674-1.279,4.194-2.208A.723.723,0,0,1,512.791,469.876Z" transform="translate(-318.303 -294.39)"/><ellipse class="l" cx="29.241" cy="36.6" rx="29.241" ry="36.6" transform="translate(76.114 91.361)"/><path class="m" d="M285.127,379.619h0a.723.723,0,0,0-.977-.3l-2.928,1.541-1-57.493h-.08l-1.526,82.9h3.052l-.415-23.79,3.573-1.882A.723.723,0,0,0,285.127,379.619Z" transform="translate(-174.704 -202.763)"/><path class="n" d="M332.7,116.937c20.463,0,37.095,38.557,37.095,64.17s-16.589,46.377-37.051,46.377-37.051-20.763-37.051-46.377S312.237,116.937,332.7,116.937Z" transform="translate(-185.413 -73.323)"/><path class="o" d="M398.378,334.271a.916.916,0,0,0-1.237-.384h0l-3.71,1.953-1.271-72.85h-.1l-1.934,105.046h3.868l-.526-30.145,4.528-2.384a.916.916,0,0,0,.384-1.237Z" transform="translate(-244.627 -164.906)"/></g></svg>