<svg width="427" height="398" viewBox="0 0 427 398" fill="none" xmlns="http://www.w3.org/2000/svg">
<g clip-path="url(#clip0_165_1903)">
<path d="M287.828 282.147H134.652C121.776 282.147 111.302 271.676 111.302 258.806V105.687C111.302 92.8162 121.776 82.3455 134.652 82.3455H287.828C300.704 82.3455 311.178 92.8162 311.178 105.687V258.806C311.178 271.676 300.704 282.147 287.828 282.147V282.147ZM134.652 86.0801C123.819 86.0801 115.038 94.8583 115.038 105.687V258.806C115.038 269.634 123.819 278.413 134.652 278.413H241.948C278.12 278.413 307.442 249.101 307.442 212.943V105.687C307.442 94.8583 298.661 86.0801 287.828 86.0801H134.652V86.0801Z" fill="#F4D9B4"/>
<path d="M151.165 102.003C143.915 102.003 138.018 107.898 138.018 115.145V135.716C138.018 142.963 143.915 148.859 151.165 148.859H171.744C178.993 148.859 184.891 142.963 184.891 135.716V115.145C184.891 107.898 178.993 102.003 171.744 102.003H151.165Z" fill="#F4D9B4"/>
<path d="M151.165 159.912C143.915 159.912 138.018 165.808 138.018 173.055V193.626C138.018 200.873 143.915 206.768 151.165 206.768H171.744C178.993 206.768 184.891 200.873 184.891 193.626V173.055C184.891 165.808 178.993 159.912 171.744 159.912H151.165V159.912Z" fill="#F4D9B4"/>
<path d="M151.165 217.822C143.915 217.822 138.018 223.717 138.018 230.964V251.535C138.018 258.782 143.915 264.678 151.165 264.678H171.744C178.993 264.678 184.891 258.782 184.891 251.535V230.964C184.891 223.717 178.993 217.822 171.744 217.822H151.165Z" fill="#F4D9B4"/>
<path d="M164.812 51.8145C155.677 51.8145 148.246 59.2429 148.246 68.3744V94.2942C148.246 103.426 155.677 110.854 164.812 110.854H190.742C199.877 110.854 207.308 103.426 207.308 94.2942V68.3744C207.308 59.2429 199.877 51.8145 190.742 51.8145H164.812V51.8145Z" fill="#F97910"/>
<path d="M250.178 124.25C241.044 124.25 233.612 131.678 233.612 140.81V166.729C233.612 175.861 241.044 183.289 250.178 183.289H276.108C285.243 183.289 292.674 175.861 292.674 166.729V140.81C292.674 131.678 285.243 124.25 276.108 124.25H250.178Z" fill="#F97910"/>
<path d="M213.065 385.143L207.798 385.099L205.466 364.315L213.24 364.38L213.065 385.143Z" fill="#A0616A"/>
<path d="M196.192 393.517C196.181 394.813 197.226 395.879 198.527 395.891L209.001 395.979L210.834 392.264L211.508 395.998L215.459 396.034L214.462 382.716L213.087 382.624L207.479 382.238L205.669 382.117L205.638 385.885L197.224 391.589C196.584 392.024 196.199 392.744 196.192 393.517H196.192Z" fill="#402121"/>
<path d="M239.867 385.143L234.599 385.099L232.268 364.315L240.042 364.38L239.867 385.143Z" fill="#A0616A"/>
<path d="M222.994 393.517C222.983 394.813 224.028 395.879 225.329 395.891L235.802 395.979L237.636 392.264L238.309 395.998L242.261 396.034L241.263 382.716L239.888 382.624L234.28 382.238L232.471 382.117L232.439 385.885L224.026 391.589C223.386 392.024 223.001 392.744 222.994 393.517V393.517Z" fill="#402121"/>
<path d="M192.394 217.105L213.747 217.78L233.975 222.273C233.975 222.273 231.952 224.744 238.695 231.485C238.695 231.485 247.686 247.212 241.392 262.49L238.695 323.602C238.695 323.602 246.559 366.682 240.551 380.393L232.61 380.889L219.172 324.099L212.623 262.939L209.476 323.153C209.476 323.153 221.514 364.482 213.913 380.889L205.312 380.393L190.596 323.153C190.596 323.153 184.303 257.098 185.202 244.516C186.101 231.934 192.395 217.105 192.395 217.105H192.394Z" fill="#5A5555"/>
<path d="M264.101 120.539C261.182 121.294 259.429 124.272 260.184 127.19C260.531 128.527 261.347 129.615 262.407 130.333L262.407 130.341L261.993 140.367L269.668 143.917L270.281 128.489L270.227 128.491C270.893 127.306 271.123 125.874 270.755 124.454C269.999 121.536 267.02 119.783 264.101 120.539V120.539Z" fill="#A0616A"/>
<path d="M221.204 156.321C219.592 154.723 218.656 152.557 218.621 150.202C218.574 147.042 220.158 144.174 222.858 142.531C225.968 140.638 229.856 140.829 232.765 143.018L256.866 161.158L261.161 135.026L270.381 137.993L268.181 172.02C268.027 174.401 266.681 176.498 264.581 177.629C262.481 178.761 259.989 178.733 257.915 177.554L223.084 157.745C222.385 157.347 221.755 156.867 221.204 156.321V156.321Z" fill="#402121"/>
<path d="M184.453 105.922C185.994 108.513 185.142 111.862 182.55 113.402C181.363 114.108 180.017 114.306 178.758 114.07L178.753 114.075L171.985 121.486L164.034 118.606L174.465 107.219L174.502 107.257C174.864 105.947 175.71 104.769 176.971 104.019C179.562 102.479 182.912 103.331 184.453 105.922V105.922Z" fill="#A0616A"/>
<path d="M187.376 161.21L148.689 150.764C146.386 150.142 144.596 148.409 143.902 146.127C143.208 143.845 143.729 141.409 145.296 139.61L167.7 113.897L176.337 118.279L160.982 139.859L190.874 143.94C194.481 144.432 197.377 147.033 198.252 150.565C199.012 153.633 198.117 156.785 195.858 158.995C194.174 160.643 191.984 161.523 189.714 161.523C188.939 161.523 188.153 161.42 187.376 161.21H187.376Z" fill="#402121"/>
<path d="M242.531 226.096L188.432 228.577C186.946 226.321 187.349 222.93 189.43 218.683C197.286 202.648 191.319 172.313 187.306 156.518C186.179 152.086 189.203 147.68 193.754 147.225L198.855 146.715L203.57 132.327H220.083L226.934 140.151L238.56 147.211C236.444 169.001 227.427 199.77 240.273 215.201C243.083 218.576 243.879 222.225 242.531 226.096V226.096Z" fill="#402121"/>
<path d="M209.726 132.659C218.609 132.659 225.811 125.461 225.811 116.581C225.811 107.701 218.609 100.503 209.726 100.503C200.843 100.503 193.642 107.701 193.642 116.581C193.642 125.461 200.843 132.659 209.726 132.659Z" fill="#A0616A"/>
<path d="M227.926 106.289C230.164 98.1333 205.774 91.1395 201.034 97.7074C200.375 96.7737 197.94 96.2065 196.822 96.4929C195.705 96.7794 194.765 97.4955 193.848 98.1887C192.587 99.1568 191.28 100.159 190.507 101.551C189.727 102.938 189.607 104.828 190.656 106.031C191.487 106.988 192.947 112.072 194.196 112.324C195.067 112.502 195.801 112.645 196.431 112.748C196.993 111.929 198.425 110.9 198.322 109.909C199.17 110.47 198.86 111.458 198.689 112.467C198.12 115.829 185.291 141.851 192.639 134.183C193.366 134.612 194.266 135.013 195.303 135.38C197.063 132.728 198.507 129.6 199.458 126.329L199.465 126.389C199.793 129.232 201.871 131.564 204.62 132.36C215.65 135.555 224.572 130.868 227.641 122.416C226.517 120.135 226.028 120.383 226.129 120.315C227.531 119.37 229.459 119.988 230.062 121.568C230.239 122.034 230.401 122.431 230.541 122.731C232.14 117.013 234.041 117.838 227.926 106.289H227.926Z" fill="#402121"/>
<path d="M220.318 100.372L219.191 94.6142C219.097 94.1302 219.007 93.6051 219.225 93.1628C219.506 92.5946 220.227 92.3591 220.854 92.4496C221.481 92.5402 221.951 93.1131 222.575 93.2234C224.745 93.6069 227.614 91.464 228.392 96.8851C228.716 99.1454 232.324 99.3841 233.529 101.324C234.734 103.264 234.882 106.064 233.237 107.649C231.924 108.914 229.815 109.06 228.109 108.414C226.403 107.767 225.034 106.461 223.838 105.084C222.642 103.707 221.56 102.217 220.18 101.023" fill="#402121"/>
<path d="M228.786 109.129C224.384 108.515 221.385 106.915 219.869 104.374C217.886 101.048 219.214 97.386 219.272 97.2317L220.202 97.5774C220.19 97.6111 218.985 100.963 220.727 103.874C222.082 106.139 224.84 107.577 228.923 108.147L228.786 109.129V109.129Z" fill="#F97910"/>
<path d="M249.44 46.9163C236.501 46.9163 225.973 36.3922 225.973 23.4581C225.973 10.5241 236.501 0 249.44 0C262.378 0 272.906 10.5241 272.906 23.4581C272.906 36.3922 262.378 46.9163 249.44 46.9163ZM249.44 9.38326C241.675 9.38326 235.359 15.6968 235.359 23.4581C235.359 31.2195 241.675 37.533 249.44 37.533C257.204 37.533 263.52 31.2195 263.52 23.4581C263.52 15.6968 257.204 9.38326 249.44 9.38326V9.38326Z" fill="#F97910"/>
<path d="M285.545 62.8581C284.395 62.8581 283.242 62.4389 282.337 61.589L260.311 40.9555C258.418 39.1847 258.322 36.2157 260.096 34.3258C261.865 32.429 264.835 32.3351 266.728 34.1105L288.754 54.744C290.646 56.5148 290.743 59.4837 288.969 61.3737C288.045 62.361 286.796 62.8581 285.545 62.8581V62.8581Z" fill="#F97910"/>
<path d="M385.09 384.617C386.685 384.717 387.567 382.735 386.36 381.58L386.24 381.102C386.256 381.064 386.272 381.026 386.288 380.988C387.901 377.141 393.371 377.168 394.971 381.02C396.391 384.439 398.199 387.864 398.644 391.479C398.844 393.075 398.754 394.701 398.4 396.267C401.727 389.001 403.478 381.066 403.478 373.087C403.478 371.082 403.369 369.077 403.144 367.078C402.96 365.442 402.705 363.816 402.376 362.205C400.595 353.498 396.738 345.204 391.176 338.277C388.502 336.816 386.272 334.532 384.925 331.794C384.441 330.807 384.061 329.744 383.882 328.662C384.186 328.702 385.029 324.069 384.8 323.785C385.224 323.141 385.983 322.822 386.446 322.194C388.75 319.072 391.924 319.617 393.58 323.86C397.12 325.645 397.154 328.607 394.982 331.455C393.601 333.267 393.411 335.719 392.198 337.659C392.323 337.818 392.453 337.973 392.578 338.133C394.865 341.065 396.843 344.217 398.511 347.528C398.039 343.848 398.735 339.415 399.921 336.557C401.272 333.3 403.803 330.558 406.031 327.743C408.709 324.361 414.199 325.837 414.67 330.124C414.675 330.165 414.679 330.206 414.684 330.248C414.352 330.435 414.028 330.633 413.711 330.842C411.904 332.037 412.529 334.837 414.67 335.168L414.718 335.175C414.599 336.367 414.394 337.549 414.095 338.711C416.954 349.765 410.781 353.791 401.967 353.971C401.772 354.071 401.583 354.171 401.388 354.266C402.281 356.779 402.994 359.357 403.523 361.971C403.997 364.28 404.327 366.614 404.511 368.958C404.741 371.915 404.721 374.887 404.471 377.84L404.486 377.735C405.12 374.483 406.886 371.446 409.45 369.342C413.27 366.205 418.667 365.05 422.788 362.528C424.772 361.314 427.314 362.883 426.968 365.182L426.951 365.292C426.338 365.541 425.739 365.831 425.16 366.155C424.829 366.342 424.505 366.54 424.188 366.749C422.381 367.944 423.006 370.744 425.147 371.075L425.195 371.082C425.23 371.087 425.26 371.092 425.295 371.097C424.242 373.596 422.776 375.915 420.94 377.914C419.152 387.564 411.473 388.479 403.259 385.669H403.254C402.356 389.579 401.044 393.399 399.357 397.04H385.438C385.388 396.885 385.344 396.726 385.299 396.571C386.586 396.651 387.883 396.576 389.15 396.342C388.117 395.075 387.085 393.798 386.052 392.531C386.027 392.507 386.007 392.482 385.987 392.457C385.463 391.808 384.935 391.165 384.411 390.517L384.41 390.516C384.378 388.526 384.616 386.542 385.089 384.617L385.09 384.617V384.617Z" fill="#F4D9B4"/>
<path d="M0 397.081C0 397.591 0.409404 398 0.919223 398H425.973C426.482 398 426.892 397.591 426.892 397.081C426.892 396.572 426.482 396.162 425.973 396.162H0.919223C0.409404 396.162 0 396.572 0 397.081Z" fill="#F4D9B4"/>
</g>
<defs>
<clipPath id="clip0_165_1903">
<rect width="427" height="398" fill="white"/>
</clipPath>
</defs>
</svg>
