<svg xmlns="http://www.w3.org/2000/svg" width="24.724" height="46.201" viewBox="0 0 24.724 46.201"><defs><style>.a{fill:#f4d9b4;}</style></defs><path class="a" d="M2057.653,375.105c-.788.847-11.555,11.724-12,22.364-.014.165-.021.333-.021.5,0,.029,0,.059,0,.087s0,.058,0,.087h.005c.119,10.8,11.22,22.007,12.019,22.868a.457.457,0,0,0,.669,0c.7-.738,11.9-12.128,12.024-22.867h.006c0-.029,0-.058,0-.087s0-.059,0-.088c0-.163-.008-.323-.021-.48-.44-10.6-11.318-21.66-12.009-22.387A.457.457,0,0,0,2057.653,375.105Z" transform="translate(-2045.628 -374.96)"/></svg>