<svg xmlns="http://www.w3.org/2000/svg" xmlns:xlink="http://www.w3.org/1999/xlink" width="843" height="560" viewBox="0 0 843 560"><defs><style>.a{fill:#fff;}.b{clip-path:url(#a);}.c{fill:#fcf5eb;isolation:isolate;}.d{fill:#f97910;}.e{fill:#fffbf6;}.f{fill:#99ad23;}.g{fill:#402121;}.h{fill:#f4d9b4;}.i{fill:#ffd95e;}.j{fill:#ffb8b8;}.k{fill:#2f2e41;}.l{fill:#ffbf7a;}.m{fill:#2d2208;}.n{fill:#c45500;}.o{fill:#a0616a;}</style><clipPath id="a"><rect class="a" width="843" height="560" transform="translate(1077 296)"/></clipPath></defs><g class="b" transform="translate(-1077 -296)"><g transform="translate(1080.021 273.825)"><path class="c" d="M11.99,428.39c14.14,58.115,44.079,108.351,91.4,132.7,98.339,50.606,320.128,24.506,485.644-5.457C674.612,540.137,749.9,497.4,804.572,437.195Z" transform="translate(-2.345 -82.102)"/><path class="c" d="M885.528,73.177H794.713a7.549,7.549,0,0,1-.493-15.09q.246-.008.493,0h15.694A7.549,7.549,0,1,1,809.914,43q.246-.008.492,0H799.2a7.549,7.549,0,0,1-.493-15.09q.246-.008.493,0h47.4a128.672,128.672,0,0,0-37.021-9.794c-129.2-15.959-175.351-5.4-191.632,5.424-20.12,13.392-42.494,23.243-66.437,27.991-79.748,15.814-228.887,34.84-364.062-6.092C120.261,25.146,70.331,59.5,40.4,116.959H901.3c-1.127-16.7-4.491-32.12-10.664-45.616A7.983,7.983,0,0,1,885.528,73.177Z" transform="translate(-7.89 -0.427)"/><path class="c" d="M553.96,308.754l-1.183-.072-12.354-.7-118.451-6.656-12.788-.724-188.6-10.623-52.86-2.97-8.37-.467-7.428-.418L1.935,277.68A369.6,369.6,0,0,0,5.46,379.086l126.194,4.435,10,.362,1.771.056,59.861,2.109,3.219.1,6.9.242,60.36,2.125,8.282.3,28.868.99h.539l4.241.153,14.446.507h0l12.676.443,24.144.845h.515l2.149.072,2.286.08h.5l38.478,1.352,10.784.386h.451l5.191.185h1.352l4.571.161,13.923.5h0l5.239.177,6.712.233h.249l9.223.33,26.671.942,7.34.25h.8l35.556,1.247,20.643.724,25.754,1.062,4.121.145,6.656.233,24.193.853,182.49,6.439A358.945,358.945,0,0,0,858.2,325.9ZM210.839,365.09a7.984,7.984,0,0,1-5.223-1.932h0a7.471,7.471,0,0,1-1.658-2,7.244,7.244,0,0,1,.33-7.726h0a7.774,7.774,0,0,1,.877-1.038,7.945,7.945,0,0,1,5.674-2.35h15.694a7.557,7.557,0,0,1-.7-15.1q.348-.016.7,0H215.282c-.244.012-.489.012-.732,0a7.534,7.534,0,1,1,.732-15.05h90.8a7.549,7.549,0,1,1,0,15.05h11.267a7.557,7.557,0,0,1,.7,15.1q-.348.016-.7,0H301.653a7.549,7.549,0,1,1,.7,15.082q-.348.016-.7,0Z" transform="translate(0 -52.685)"/><path class="c" d="M893.948,143.57l-626.43,14.639-68.851,1.61L23.4,163.9C12.829,190.088,5.8,219.673,2.56,250.336H878.7a345.58,345.58,0,0,0,12.643-55.049C893.948,177.227,895,159.8,893.948,143.57ZM179.279,210.264H163.586a7.718,7.718,0,0,1,7.855,7.541v.459a7.549,7.549,0,0,1-3.485,5.819,8.053,8.053,0,0,1-4.354,1.272H72.787a7.549,7.549,0,0,1-.493-15.09q.246-.008.493,0H88.481a7.549,7.549,0,1,1-.493-15.09q.246-.008.493,0h-11.2a7.549,7.549,0,0,1-.493-15.09q.246-.008.493,0h90.814a7.549,7.549,0,0,1,.493,15.09q-.246.008-.493,0H179.3a8.044,8.044,0,0,1,3.726.917,7.51,7.51,0,0,1,4.129,6.624,7.726,7.726,0,0,1-7.855,7.549Z" transform="translate(-0.504 -26.507)"/></g><g transform="translate(-147.876 -15.495)"><path class="d" d="M526.269,641.422s-12.072-29.714,24.142-52Z" transform="translate(752.339 230.518)"/><path class="d" d="M508.877,642.6s-3.682-21.179-32.183-21Z" transform="translate(754.885 228.798)"/><path class="d" d="M798.189,640.48s-15.949-39.256,31.895-68.7Z" transform="translate(1028.394 231.46)"/><path class="d" d="M775.212,642.036s-4.864-27.98-42.518-27.739" transform="translate(1031.756 229.189)"/><path class="e" d="M1081.993,645.893H446.668c-.922,0-1.668-.424-1.668-.947s.745-.947,1.668-.947h635.324c.92,0,1.667.424,1.667.947S1082.913,645.893,1081.993,645.893Z" transform="translate(771.005 227.602)"/><path class="f" d="M35.458,45.03H3.888A3.892,3.892,0,0,1,0,41.142V3.888A3.893,3.893,0,0,1,3.888,0h31.57a3.893,3.893,0,0,1,3.888,3.888V41.142A3.892,3.892,0,0,1,35.458,45.03Z" transform="translate(1469.716 515.2) rotate(90)"/><path class="d" d="M35.458,45.03H3.888A3.892,3.892,0,0,1,0,41.142V3.888A3.893,3.893,0,0,1,3.888,0h31.57a3.893,3.893,0,0,1,3.888,3.888V41.142A3.892,3.892,0,0,1,35.458,45.03Z" transform="translate(1514.643 621.47) rotate(90)"/><path class="d" d="M35.458,45.03H3.888A3.892,3.892,0,0,1,0,41.142V3.888A3.893,3.893,0,0,1,3.888,0h31.57a3.893,3.893,0,0,1,3.888,3.888V41.142A3.891,3.891,0,0,1,35.458,45.03Z" transform="translate(1616.592 537.664) rotate(90)"/><path class="g" d="M35.458,45.03H3.888A3.892,3.892,0,0,1,0,41.142V3.888A3.893,3.893,0,0,1,3.888,0h31.57a3.893,3.893,0,0,1,3.888,3.888V41.142A3.892,3.892,0,0,1,35.458,45.03Z" transform="translate(1748.781 497.057) rotate(90)"/><path class="d" d="M695.01,188.5H663.44a3.892,3.892,0,0,1-3.888-3.888V147.356a3.893,3.893,0,0,1,3.888-3.888h31.57a3.893,3.893,0,0,1,3.888,3.888V184.61A3.892,3.892,0,0,1,695.01,188.5Z" transform="translate(1168.863 350.746)"/><path class="h" d="M35.458,45.03H3.888A3.892,3.892,0,0,1,0,41.142V3.888A3.893,3.893,0,0,1,3.888,0h31.57a3.893,3.893,0,0,1,3.888,3.888V41.142A3.892,3.892,0,0,1,35.458,45.03Z" transform="translate(1926.761 507.424) rotate(90)"/><path class="h" d="M35.458,45.03H3.888A3.892,3.892,0,0,1,0,41.142V3.888A3.893,3.893,0,0,1,3.888,0h31.57a3.893,3.893,0,0,1,3.888,3.888V41.142A3.892,3.892,0,0,1,35.458,45.03Z" transform="translate(1881.731 565.175) rotate(90)"/><path class="i" d="M35.458,45.03H3.888A3.892,3.892,0,0,1,0,41.142V3.888A3.893,3.893,0,0,1,3.888,0h31.57a3.893,3.893,0,0,1,3.888,3.888V41.142A3.892,3.892,0,0,1,35.458,45.03Z" transform="translate(1782.363 565.175) rotate(90)"/><path class="f" d="M35.458,45.03H3.888A3.892,3.892,0,0,1,0,41.142V3.888A3.893,3.893,0,0,1,3.888,0h31.57a3.893,3.893,0,0,1,3.888,3.888V41.142A3.892,3.892,0,0,1,35.458,45.03Z" transform="translate(1601.041 632.701) rotate(90)"/><path class="h" d="M35.458,45.03H3.888A3.892,3.892,0,0,1,0,41.142V3.888A3.893,3.893,0,0,1,3.888,0h31.57a3.893,3.893,0,0,1,3.888,3.888V41.142A3.892,3.892,0,0,1,35.458,45.03Z" transform="translate(1441.204 583.455) rotate(90)"/><path class="i" d="M35.458,45.03H3.888A3.892,3.892,0,0,1,0,41.142V3.888A3.893,3.893,0,0,1,3.888,0h31.57a3.893,3.893,0,0,1,3.888,3.888V41.142A3.892,3.892,0,0,1,35.458,45.03Z" transform="translate(1530.194 532.356) rotate(90)"/><path class="j" d="M144.339,384.446a8.686,8.686,0,0,1-7.517-11l-22.146-20.615,11.71-2.97,21.777,17.662a8.735,8.735,0,0,1-3.824,16.922Z" transform="translate(1242.977 322.673)"/><path class="j" d="M184.4,559.821H195l5.039-40.856H184.4Z" transform="translate(1233.493 299.671)"/><path class="k" d="M215.067,575.611h-33.29V562.751h0l20.427,0a12.863,12.863,0,0,1,12.863,12.862Z" transform="translate(1233.85 293.716)"/><path class="j" d="M100.345,551.185l10.236,2.725,15.38-38.184L110.854,511.7Z" transform="translate(1244.926 300.659)"/><path class="k" d="M127.048,574.334l-32.169-8.562h0l3.308-12.429h0l19.74,5.254a12.862,12.862,0,0,1,9.121,15.737Z" transform="translate(1245.67 294.995)"/><path class="h" d="M186.116,527.67H169.954a4.086,4.086,0,0,1-4.083-3.709l-9.812-101.891a3.238,3.238,0,0,0-6.325-.618l-28.488,95.211a4.1,4.1,0,0,1-4.925,2.8l-15.036-3.76a4.1,4.1,0,0,1-2.985-4.974l.006-.026c.246-.959,24.547-95.926,24.759-96.9,5.505-40.579,12.093-51.453,15.632-57.295.293-.483.562-.928.8-1.348.3-.526,2.17-5.741,3.355-9.128a4.138,4.138,0,0,1,2.1-2.572c14.87-7.6,32.268-2.341,37.245-.546a4.044,4.044,0,0,1,2.021,1.568c14.933,22.526,7.6,153.349,5.984,179.346A4.106,4.106,0,0,1,186.116,527.67Z" transform="translate(1245.221 324.087)"/><circle class="l" cx="21.22" cy="21.22" r="21.22" transform="translate(1368.407 551.233)"/><path class="d" d="M145.086,340.151l-.153-.148c-.286-.276-28.559-27.976-24.9-53.587,1.565-10.955,10.428-17.955,25.632-20.244a23.444,23.444,0,0,1,25.919,16.52l15.033,51.393Z" transform="translate(1242.293 334.091)"/><path class="d" d="M128.637,362.485,108.49,342.466a11.351,11.351,0,0,1-3.006-10.706l9.753-39.673a8.946,8.946,0,0,1,10.822-6.552q.285.07.565.159a8.994,8.994,0,0,1,5.883,11.054l-10.268,34.9,16.6,17.83Z" transform="translate(1244.271 331.458)"/><path class="j" d="M251.145,293.6a8.685,8.685,0,0,1-12.859,3.481l-26.9,13.94,1.189-11.842,23.843-14.756a8.735,8.735,0,0,1,14.722,9.176Z" transform="translate(1229.822 332.019)"/><path class="d" d="M227.459,301.055l-26.218,11.329a11.068,11.068,0,0,1-10.78-1.156l-33.34-23.888a8.947,8.947,0,0,1-2.061-12.484c.114-.158.232-.314.356-.464a8.995,8.995,0,0,1,12.449-1.355l28.587,22.5,22.724-8.791Z" transform="translate(1237.712 333.381)"/><path class="m" d="M147.719,236.685c2.618-3.281,7.509-3.457,11.1-5.62,4.71-2.835,6.658-9.168,5.14-14.451s-5.994-9.4-11.127-11.371-10.842-1.993-16.257-1.041c-8.061,1.417-16,5.18-20.913,11.723s-6.168,16.127-1.712,22.992c2.048,3.156,5.21,5.76,6.027,9.432,1.073,4.821-2.309,9.47-5.93,12.827-4.127,3.825-8.862,7.028-12.478,11.338s-6.027,10.2-4.377,15.579c1.382,4.507,5.405,7.828,9.816,9.49s9.215,1.9,13.928,2c4.577.089,9.438-.022,13.293-2.49,4.128-2.641,6.331-7.653,6.495-12.551s-1.474-9.7-3.668-14.078a54.127,54.127,0,0,1-3.7-7.931c-.869-2.789-1.02-5.954.372-8.521,1.463-2.7,4.422-4.328,7.435-4.919q.235-.047.5-.083a6.392,6.392,0,0,0,5.517-7.162c-.013-.1-.028-.2-.045-.293C146.793,239.638,146.823,237.806,147.719,236.685Z" transform="translate(1245.427 342.569)"/><path class="n" d="M480.768,560.868H470.176l-5.039-40.856H480.77Z" transform="translate(1195.307 299.529)"/><path class="m" d="M460.187,563.8h20.428v12.862h-33.29A12.862,12.862,0,0,1,460.187,563.8Z" transform="translate(1197.73 293.573)"/><path class="n" d="M567.273,547.562l-9.634,4.4-21.56-35.068,14.22-6.5Z" transform="translate(1185.657 300.836)"/><path class="m" d="M550.428,557.622l18.581-8.487h0l5.344,11.7h0l-30.28,13.831h0A12.862,12.862,0,0,1,550.428,557.622Z" transform="translate(1184.729 295.568)"/><path class="o" d="M534.273,401.315a8.693,8.693,0,0,0,.692-13.3l12.451-28.251-15.818,2.68-9.4,26.418a8.735,8.735,0,0,0,12.074,12.458Z" transform="translate(1187.812 321.327)"/><path class="m" d="M479.374,530.407H469.255a3.9,3.9,0,0,1-3.878-3.605l-5.518-147.36a3.89,3.89,0,0,1,4.256-4.151l58.521,6.215a3.889,3.889,0,0,1,3.51,3.8l1.226,65a3.028,3.028,0,0,0,.2,1.031l24.006,62.252a3.887,3.887,0,0,1-2.227,5.025l-.056.021-10.254,3.778a3.888,3.888,0,0,1-4.8-1.87L504.751,463.2a3.893,3.893,0,0,1-.35-.987l-5.037-24.273a3.024,3.024,0,0,0-5.965.27l-10.163,88.751A3.885,3.885,0,0,1,479.374,530.407Z" transform="translate(1196.026 319.216)"/><circle class="n" cx="21.22" cy="21.22" r="21.22" transform="translate(1659.218 540.998)"/><path class="h" d="M498.715,376.885a75.735,75.735,0,0,1-40.5-12.267l-.206-.143.022-.25,8.117-94.533a13.323,13.323,0,0,1,12.613-12.149c10.52-.484,24.65.126,32.214,5.76,11.431,8.514,16.94,21.334,15.115,35.174-3.784,28.7.5,67.415,1,71.735l.036.312-.284.13A66.757,66.757,0,0,1,498.715,376.885Z" transform="translate(1196.276 335.248)"/><path class="h" d="M535.492,373.81a4.328,4.328,0,0,1-3.18-1.4l-4.641-5.065a4.34,4.34,0,0,1-.958-4.143L537.3,327.377l-16.1-33.819a7.611,7.611,0,0,1,13.573-6.88l21.854,35.459a10.322,10.322,0,0,1,.622,9.675l-17.806,39.454a4.311,4.311,0,0,1-3.255,2.488A4.466,4.466,0,0,1,535.492,373.81Z" transform="translate(1187.783 331.812)"/><path class="o" d="M364.176,306.469a8.687,8.687,0,0,0,12.958-3.091l30.618,3.971-7.036-14.418-28-1.56a8.735,8.735,0,0,0-8.543,15.1Z" transform="translate(1209.525 330.722)"/><path class="h" d="M434.363,309.7a11.55,11.55,0,0,1-1.593-.111l-48.168-6.68a4.788,4.788,0,0,1-3.673-2.688,4.85,4.85,0,0,1-.275-.716h0a4.806,4.806,0,0,1,.5-3.829l3.986-6.609a4.826,4.826,0,0,1,4.109-2.321h.007l41.986.048L462.6,258.7a8.5,8.5,0,0,1,11.646,12.369l-31.289,34.8A11.545,11.545,0,0,1,434.363,309.7Z" transform="translate(1206.825 335.368)"/><path class="m" d="M486.319,236.382c1.939-4.488,3.579-10.465-.14-13.638-2.157-1.84-5.264-1.845-8.091-2.074-7.963-.645-16.162-4.31-20.054-11.286s-1.719-17.353,5.625-20.5c4.951-2.122,10.625-.676,15.807.792l15.557,4.411c4.622,1.311,9.475,2.756,12.8,6.222,5.307,5.527,4.91,14.87.695,21.269s-10.563,13.072-17.831,15.5Z" transform="translate(1196.532 344.715)"/></g></g></svg>