<svg xmlns="http://www.w3.org/2000/svg" width="248.22" height="94" viewBox="0 0 248.22 94"><defs><style>.a{fill:#fcf5eb;}</style></defs><g transform="translate(-331.07 -304.338)"><path class="a" d="M945.757,407.338v2.772h-5.826v5.563H936.85V400.82h10.132v2.772h-7.051v3.748Z" transform="translate(-486.272 -77.448)"/><path class="a" d="M1012.791,421.576a2.988,2.988,0,0,0-1.485-.395,2.215,2.215,0,0,0-1.62.631,6.257,6.257,0,0,0-1.13,1.562v6.252h-2.815v-11.2h2.813v2.1a6.248,6.248,0,0,1,1.363-1.663,2.689,2.689,0,0,1,1.776-.665,2.867,2.867,0,0,1,1.087.2Z" transform="translate(-541.572 -91.398)"/><path class="a" d="M1054.232,417.892a5.394,5.394,0,0,1,2.825.71,4.718,4.718,0,0,1,1.819,1.961,6.357,6.357,0,0,1,.631,2.894v1.2h-8.114a2.935,2.935,0,0,0,1.109,1.817,3.441,3.441,0,0,0,2.17.688,4.977,4.977,0,0,0,2.217-.489,7.607,7.607,0,0,0,1.6-.986l-.022,2.616a6.589,6.589,0,0,1-1.578.941,5.547,5.547,0,0,1-2.324.468,6.164,6.164,0,0,1-3.026-.754,5.812,5.812,0,0,1-2.17-2.062,5.564,5.564,0,0,1-.809-2.993,6.2,6.2,0,0,1,.73-2.995,5.917,5.917,0,0,1,2.018-2.182A5.268,5.268,0,0,1,1054.232,417.892Zm-.067,2.462a2.515,2.515,0,0,0-1.752.641,3.324,3.324,0,0,0-.975,1.73h5.364a2.27,2.27,0,0,0-.886-1.776,2.9,2.9,0,0,0-1.75-.6Z" transform="translate(-575.94 -91.15)"/><path class="a" d="M1117.674,417.9a5.831,5.831,0,0,1,1.927.31,4.548,4.548,0,0,1,1.381.71V421.4a8.47,8.47,0,0,0-1.3-.688,3.956,3.956,0,0,0-1.578-.331,2.039,2.039,0,0,0-1.265.355,1.037,1.037,0,0,0-.466.842.964.964,0,0,0,.266.653,2.258,2.258,0,0,0,1.02.521l1.265.422q2.547.752,2.549,2.947a3.067,3.067,0,0,1-.592,1.852,4.015,4.015,0,0,1-1.578,1.274,5.071,5.071,0,0,1-2.184.466,6.894,6.894,0,0,1-2.2-.355,5.7,5.7,0,0,1-1.618-.775v-2.462a6.292,6.292,0,0,0,1.02.554,7.891,7.891,0,0,0,1.241.432,4.666,4.666,0,0,0,1.184.168,2.367,2.367,0,0,0,1.3-.3.962.962,0,0,0,.454-.854.753.753,0,0,0-.377-.665,5.1,5.1,0,0,0-1.109-.487l-1.381-.487a3.151,3.151,0,0,1-1.775-1.2,3.383,3.383,0,0,1-.49-1.841,3.173,3.173,0,0,1,.545-1.85,3.689,3.689,0,0,1,1.517-1.243A5.268,5.268,0,0,1,1117.674,417.9Z" transform="translate(-627.921 -91.155)"/><path class="a" d="M1168.066,417.9a4.412,4.412,0,0,1,1.839.422,4.466,4.466,0,0,1,1.552,1.13v-1.265h2.815V434.7h-2.815v-7.2a4.516,4.516,0,0,1-1.418,1.562,3.689,3.689,0,0,1-2.17.655,4.749,4.749,0,0,1-2.493-.686,4.953,4.953,0,0,1-1.829-2,7.653,7.653,0,0,1,.012-6.362,5.129,5.129,0,0,1,1.884-2.052A4.962,4.962,0,0,1,1168.066,417.9Zm.576,2.772a2.538,2.538,0,0,0-1.519.454,3.128,3.128,0,0,0-.986,1.184,3.477,3.477,0,0,0-.355,1.562,3.136,3.136,0,0,0,.765,2.141,2.565,2.565,0,0,0,2.028.874,2.715,2.715,0,0,0,1.408-.395,2.979,2.979,0,0,0,1.063-1.109,3.455,3.455,0,0,0,.41-1.74v-1.6a4.83,4.83,0,0,0-1.3-1.01,3.24,3.24,0,0,0-1.519-.355Z" transform="translate(-667.692 -91.157)"/><path class="a" d="M1247.231,419.36v6.674a4.77,4.77,0,0,1-.665,2.565,4.425,4.425,0,0,1-1.807,1.651,6.116,6.116,0,0,1-5.187,0,4.365,4.365,0,0,1-1.8-1.651,4.837,4.837,0,0,1-.653-2.565V419.36h2.837l.024,6.163a2.793,2.793,0,0,0,.592,1.951,2.29,2.29,0,0,0,3.182,0,2.741,2.741,0,0,0,.609-1.951V419.36Z" transform="translate(-727.306 -92.33)"/><path class="a" d="M1306.46,417.892a5.393,5.393,0,0,1,2.825.71,4.719,4.719,0,0,1,1.819,1.961,6.358,6.358,0,0,1,.631,2.894v1.2h-8.114a2.933,2.933,0,0,0,1.109,1.817,3.441,3.441,0,0,0,2.17.688,4.977,4.977,0,0,0,2.221-.489,7.609,7.609,0,0,0,1.6-.986l-.021,2.616a6.6,6.6,0,0,1-1.579.941,5.546,5.546,0,0,1-2.316.477,6.165,6.165,0,0,1-3.026-.754,5.814,5.814,0,0,1-2.17-2.062,5.564,5.564,0,0,1-.809-2.993,6.192,6.192,0,0,1,.73-2.995,5.918,5.918,0,0,1,2.018-2.182A5.27,5.27,0,0,1,1306.46,417.892Zm-.067,2.462a2.516,2.516,0,0,0-1.752.641,3.326,3.326,0,0,0-.974,1.73h5.364a2.268,2.268,0,0,0-.886-1.776A2.9,2.9,0,0,0,1306.393,420.354Z" transform="translate(-778.419 -91.15)"/><path class="a" d="M936.839,612.453a7.692,7.692,0,0,1,3.014.544,4.753,4.753,0,0,1,2.006,1.5,3.538,3.538,0,0,1,.722,2.2,3.433,3.433,0,0,1-.592,1.973,4.032,4.032,0,0,1-1.476,1.33,4.344,4.344,0,0,1,1.286.592,3.27,3.27,0,0,1,1.02,1.087,3.334,3.334,0,0,1,.395,1.718,3.767,3.767,0,0,1-.756,2.273,5.25,5.25,0,0,1-2.1,1.651,7.5,7.5,0,0,1-3.156.62q-.977,0-2.107-.077t-2.123-.225q-1.018-.146-1.728-.3V613.007a24.423,24.423,0,0,1,2.683-.41Q935.355,612.454,936.839,612.453Zm0,2.817a12.931,12.931,0,0,0-2.527.221v3.591h2.772a2.643,2.643,0,0,0,1.776-.552,1.776,1.776,0,0,0,.655-1.42,1.513,1.513,0,0,0-.789-1.363A3.59,3.59,0,0,0,936.839,615.27Zm-2.527,9.621a8.355,8.355,0,0,0,1.43.211c.539.036.971.055,1.3.055a3.983,3.983,0,0,0,2.117-.511,1.6,1.6,0,0,0,.833-1.44,1.476,1.476,0,0,0-.866-1.381,4.439,4.439,0,0,0-2.083-.454h-2.726Z" transform="translate(-481.769 -247.328)"/><path class="a" d="M1008.282,609.079v11.2h-2.815v-8.8h-1.8v-2.395Zm-1.641-5.83a1.9,1.9,0,0,1,1.381.564,1.839,1.839,0,0,1,0,2.673,1.876,1.876,0,0,1-1.381.576,1.9,1.9,0,0,1-1.363-3.249A1.856,1.856,0,0,1,1006.641,603.249Z" transform="translate(-539.91 -239.942)"/><path class="a" d="M1047.083,631.339a5.843,5.843,0,0,1,2.993.789,6.216,6.216,0,0,1,2.184,2.129,5.588,5.588,0,0,1,.831,3,5.521,5.521,0,0,1-.831,2.993,6.249,6.249,0,0,1-2.184,2.117,6.056,6.056,0,0,1-8.159-2.117,5.588,5.588,0,0,1-.819-2.993,5.649,5.649,0,0,1,.819-3,6.089,6.089,0,0,1,2.184-2.129A5.864,5.864,0,0,1,1047.083,631.339Zm0,2.728a3.024,3.024,0,0,0-1.486.377,2.81,2.81,0,0,0-1.1,1.085,3.849,3.849,0,0,0,0,3.458,2.721,2.721,0,0,0,1.1,1.075,3.19,3.19,0,0,0,2.971,0,2.816,2.816,0,0,0,1.109-1.075,3.769,3.769,0,0,0,0-3.458,2.91,2.91,0,0,0-1.109-1.085A3.035,3.035,0,0,0,1047.083,634.067Z" transform="translate(-569.953 -262.49)"/><path class="a" d="M1122.854,608.64V624.6h-2.815v-1.886a4.527,4.527,0,0,1-1.418,1.564,3.7,3.7,0,0,1-2.17.653,4.751,4.751,0,0,1-2.494-.687,4.932,4.932,0,0,1-1.829-2,7.642,7.642,0,0,1,0-6.362,5.127,5.127,0,0,1,1.886-2.05,4.945,4.945,0,0,1,2.626-.722,4.748,4.748,0,0,1,3.393,1.552V608.64Zm-5.631,7.25a2.537,2.537,0,0,0-1.519.454,3.109,3.109,0,0,0-.986,1.184,3.493,3.493,0,0,0-.355,1.562,3.172,3.172,0,0,0,.766,2.15,2.542,2.542,0,0,0,2.028.888,2.668,2.668,0,0,0,1.407-.394,3.05,3.05,0,0,0,1.065-1.121,3.451,3.451,0,0,0,.41-1.74v-1.6a4.885,4.885,0,0,0-1.3-1.01A3.237,3.237,0,0,0,1117.224,615.89Z" transform="translate(-626.415 -244.269)"/><path class="a" d="M1188.312,609.079v11.2H1185.5v-8.8h-1.8v-2.395Zm-1.641-5.83a1.9,1.9,0,0,1,1.381.564,1.839,1.839,0,0,1,0,2.673,1.876,1.876,0,0,1-1.381.576,1.9,1.9,0,0,1-1.363-3.249A1.858,1.858,0,0,1,1186.671,603.249Z" transform="translate(-684.424 -239.942)"/><path class="a" d="M1229.714,632.8l-5.307,11.2h-1.8l-5.232-11.2h3.281l2.823,6.944,2.959-6.94Z" transform="translate(-711.459 -263.663)"/><path class="a" d="M1288.738,631.332a5.405,5.405,0,0,1,2.827.71,4.714,4.714,0,0,1,1.817,1.961,6.337,6.337,0,0,1,.631,2.894v1.2H1285.9a2.942,2.942,0,0,0,1.109,1.817,3.435,3.435,0,0,0,2.17.689,5,5,0,0,0,2.216-.487,7.689,7.689,0,0,0,1.6-1l-.022,2.616a6.67,6.67,0,0,1-1.578.943,5.558,5.558,0,0,1-2.318.475,6.143,6.143,0,0,1-3.026-.754,5.843,5.843,0,0,1-2.17-2.062,5.563,5.563,0,0,1-.809-2.993,6.168,6.168,0,0,1,.732-2.993,5.915,5.915,0,0,1,2.016-2.184A5.275,5.275,0,0,1,1288.738,631.332Zm-.067,2.462a2.507,2.507,0,0,0-1.752.643,3.322,3.322,0,0,0-.975,1.728h5.364a2.274,2.274,0,0,0-.886-1.776A2.886,2.886,0,0,0,1288.671,633.794Z" transform="translate(-764.186 -262.483)"/><path class="a" d="M1358.651,635.048a2.986,2.986,0,0,0-1.485-.394,2.223,2.223,0,0,0-1.62.631,6.265,6.265,0,0,0-1.13,1.562V643.1H1351.6V631.9h2.815v2.107a6.244,6.244,0,0,1,1.363-1.663,2.689,2.689,0,0,1,1.776-.665,2.867,2.867,0,0,1,1.087.2Z" transform="translate(-819.201 -262.763)"/><path class="a" d="M1398.834,631.335a5.8,5.8,0,0,1,1.929.312,4.558,4.558,0,0,1,1.381.708v2.484a8.305,8.305,0,0,0-1.3-.686,3.922,3.922,0,0,0-1.578-.333,2.035,2.035,0,0,0-1.263.355,1.035,1.035,0,0,0-.489.842.961.961,0,0,0,.266.653,2.225,2.225,0,0,0,1.02.521l1.263.422q2.547.754,2.551,2.949a3.074,3.074,0,0,1-.592,1.85,4.017,4.017,0,0,1-1.578,1.275,5.074,5.074,0,0,1-2.184.466,6.913,6.913,0,0,1-2.2-.355,5.681,5.681,0,0,1-1.618-.775v-2.468a6.518,6.518,0,0,0,1.02.554,8.312,8.312,0,0,0,1.259.432,4.738,4.738,0,0,0,1.184.166,2.349,2.349,0,0,0,1.3-.3.961.961,0,0,0,.456-.852.76.76,0,0,0-.377-.667,5.2,5.2,0,0,0-1.109-.487l-1.381-.487a3.152,3.152,0,0,1-1.776-1.2,3.384,3.384,0,0,1-.487-1.841,3.173,3.173,0,0,1,.543-1.851,3.676,3.676,0,0,1,1.519-1.241A5.232,5.232,0,0,1,1398.834,631.335Z" transform="translate(-853.597 -262.486)"/><path class="a" d="M1449.506,609.079v11.2H1446.7v-8.8h-1.8v-2.395Zm-1.641-5.83a1.9,1.9,0,0,1,1.381.564,1.839,1.839,0,0,1,0,2.673,1.877,1.877,0,0,1-1.381.576,1.9,1.9,0,0,1-1.363-3.249A1.858,1.858,0,0,1,1447.865,603.249Z" transform="translate(-894.094 -239.942)"/><path class="a" d="M1487.133,616.272v3.259h3.1v2.352h-3.1v4.833a1.848,1.848,0,0,0,.343,1.184,1.236,1.236,0,0,0,1.03.432,3.529,3.529,0,0,0,1.032-.134,3.188,3.188,0,0,0,.809-.377v2.239a3.5,3.5,0,0,1-1.053.71,3.833,3.833,0,0,1-1.578.288,3.272,3.272,0,0,1-2.45-.965,3.617,3.617,0,0,1-.943-2.65v-5.563H1482.3v-1.442a4.67,4.67,0,0,0,1.961-1.418,7.636,7.636,0,0,0,1.43-2.75Z" transform="translate(-924.116 -250.394)"/><path class="a" d="M1539.466,631.332a5.405,5.405,0,0,1,2.827.71A4.711,4.711,0,0,1,1544.11,634a6.337,6.337,0,0,1,.632,2.894v1.2h-8.114a2.934,2.934,0,0,0,1.109,1.817,3.433,3.433,0,0,0,2.17.688,5,5,0,0,0,2.218-.487,7.683,7.683,0,0,0,1.6-1l-.022,2.616a6.679,6.679,0,0,1-1.578.943,5.559,5.559,0,0,1-2.318.475,6.143,6.143,0,0,1-3.026-.754,5.828,5.828,0,0,1-2.17-2.062,5.561,5.561,0,0,1-.809-2.993,6.165,6.165,0,0,1,.732-2.993,5.92,5.92,0,0,1,2.016-2.184A5.275,5.275,0,0,1,1539.466,631.332Zm-.067,2.462a2.507,2.507,0,0,0-1.752.643,3.324,3.324,0,0,0-.975,1.728h5.364a2.274,2.274,0,0,0-.886-1.776A2.885,2.885,0,0,0,1539.4,633.794Z" transform="translate(-965.453 -262.483)"/><path class="a" d="M941.875,501v15.98H939.06V515.1a4.537,4.537,0,0,1-1.418,1.562,3.686,3.686,0,0,1-2.17.653,4.751,4.751,0,0,1-2.494-.687,4.933,4.933,0,0,1-1.829-1.995,7.648,7.648,0,0,1,.01-6.364,5.13,5.13,0,0,1,1.886-2.05,4.943,4.943,0,0,1,2.626-.72,4.734,4.734,0,0,1,3.393,1.551V501Zm-5.63,7.25a2.526,2.526,0,0,0-1.519.456,3.089,3.089,0,0,0-.986,1.174,3.492,3.492,0,0,0-.355,1.564,3.177,3.177,0,0,0,.765,2.15,2.547,2.547,0,0,0,2.028.886,2.65,2.65,0,0,0,1.406-.395,3.048,3.048,0,0,0,1.065-1.12,3.472,3.472,0,0,0,.41-1.74v-1.6a4.829,4.829,0,0,0-1.3-1.008,3.21,3.21,0,0,0-1.517-.363Z" transform="translate(-481.143 -157.864)"/><path class="a" d="M1007.616,523.742a5.4,5.4,0,0,1,2.827.708,4.719,4.719,0,0,1,1.817,1.963,6.326,6.326,0,0,1,.631,2.892V530.5h-8.114a2.938,2.938,0,0,0,1.109,1.819,3.444,3.444,0,0,0,2.17.687,4.976,4.976,0,0,0,2.217-.487,7.618,7.618,0,0,0,1.6-1l-.022,2.616a6.542,6.542,0,0,1-1.578.943,5.561,5.561,0,0,1-2.318.475,6.143,6.143,0,0,1-3.026-.754,5.815,5.815,0,0,1-2.17-2.062,5.564,5.564,0,0,1-.809-2.993,6.175,6.175,0,0,1,.732-2.993,5.918,5.918,0,0,1,2.01-2.172A5.275,5.275,0,0,1,1007.616,523.742Zm-.067,2.46a2.518,2.518,0,0,0-1.752.643,3.324,3.324,0,0,0-.975,1.728h5.364a2.274,2.274,0,0,0-.886-1.776A2.886,2.886,0,0,0,1007.549,526.2Z" transform="translate(-538.525 -176.118)"/><path class="a" d="M1097.407,501v15.98h-2.817V501Z" transform="translate(-612.893 -157.864)"/><path class="a" d="M1127.59,523.75a4.735,4.735,0,0,1,3.393,1.551v-1.263h2.815v11.2h-2.807v-1.884a4.523,4.523,0,0,1-1.421,1.562,3.676,3.676,0,0,1-2.17.653,4.751,4.751,0,0,1-2.494-.687,4.932,4.932,0,0,1-1.829-1.994,7.649,7.649,0,0,1,.01-6.364,5.128,5.128,0,0,1,1.884-2.05A4.956,4.956,0,0,1,1127.59,523.75Zm.576,2.748a2.546,2.546,0,0,0-1.519.454,3.109,3.109,0,0,0-.986,1.184,3.576,3.576,0,0,0-.353,1.578,3.183,3.183,0,0,0,.763,2.15,2.565,2.565,0,0,0,2.03.886,2.651,2.651,0,0,0,1.406-.395,3.05,3.05,0,0,0,1.065-1.12,3.471,3.471,0,0,0,.41-1.74v-1.6a5.121,5.121,0,0,0-1.3-1.02A3.156,3.156,0,0,0,1128.166,526.5Z" transform="translate(-635.206 -176.126)"/><path class="a" d="M1561.209,609.054l-3.038,3.143h-2.261l2.328-3.147Z" transform="translate(-983.204 -244.598)"/><path class="a" d="M384.2,304.808c-28.943,4.476-53.133,24.293-53.133,52.04,0,14.971,6.374,27.339,16.85,35.558a4.555,4.555,0,0,0,5.524.077,152.977,152.977,0,0,1,15.21-10.026c1.6-5.837,3.265-18.244-2.614-23.476-3.73-3.316-9.667-3.91-9.667-3.91l-.231-4.6,9.2,3.45-3.91-10.351h3.91s4.831,13.81,7.591,14.032,8.286-23.7,8.286-23.7h4.143l-2.762,6.9,5.812.231v2.531l-6.731,1.841a3.462,3.462,0,0,0-.46,3.45c.69,2.3,2.651,4.37,7.191,3.679s9.371-1.61,9.371-1.61v2.3s-14.338,3.381-17.021,8.286c-1.742,3.178-1.184,9.679-.258,15.123,8.361-3.4,16.936-5.311,25.356-4.735,9.286.641,14.23,11.88,3.454,16.343-1.578.651,4.557-6.037-.8-8.412-4.537-2.014-10.943-.483-12.884,6.938-1.073,4.109.116,7,2.466,9.037a10.736,10.736,0,0,0,11.949,1.28c14.336-7.445,23.447-21.109,23.447-39.006C433.5,330.34,413.994,300.2,384.2,304.808ZM340.711,343.4c3.811-2.255,7.522-.765,9.189,3.354C346.122,349,342.382,347.549,340.711,343.4Zm4.792,15.319c-.89-4.34,1.728-7.361,6.165-7.591C352.56,355.422,349.967,358.484,345.5,358.721Zm8.26-16.706c-4.389.237-7.027-2.786-6.583-7.236,4.423-.237,7.019,2.805,6.583,7.226Zm5.991-2.04c-3.537-2.608-3.65-6.619-.477-9.769,3.559,2.628,3.626,6.627.477,9.759Zm6,.687c-1.858-3.981-.041-7.558,4.253-8.809,1.862,4.009.01,7.552-4.253,8.8Zm6.51-15.242c4.364-.754,7.3,1.959,7.4,6.4-4.332.748-7.311-1.939-7.4-6.41Zm11.059,5.378c-2.081-3.871-.468-7.544,3.748-9.033,2.083,3.9.434,7.538-3.752,9.024Zm6.313,3c-.034-4.393,3.107-6.891,7.532-6.24.012,4.419-3.147,6.871-7.542,6.23Zm13.569,4.683c1.71,4.086-.274,7.558-4.583,8.643-1.718-4.06.235-7.566,4.573-8.653Zm-4.753,18.15c4.2-1.3,7.5.986,8.148,5.413-4.243,1.29-7.5-1.026-8.158-5.421Zm2.006-4.863c2.728-3.447,6.741-3.423,9.781-.144-2.768,3.458-6.767,3.389-9.791.136Z"/></g></svg>