<svg xmlns="http://www.w3.org/2000/svg" width="142.873" height="26.71" viewBox="0 0 142.873 26.71"><defs><style>.a{fill:#402121;}</style></defs><g transform="translate(0)"><path class="a" d="M3373.457,1075.033a3.786,3.786,0,1,1,3.787,3.786,3.788,3.788,0,0,1-3.787-3.786" transform="translate(-3238.156 -1052.108)"/><path class="a" d="M3217.53,1060.061a8.476,8.476,0,0,0-1.39-5.337,5.085,5.085,0,0,0-4.224-1.737h-2.01v14.667h1.538a5.5,5.5,0,0,0,4.617-1.871q1.468-1.871,1.469-5.722m7.17-.25q0,6.554-3.524,10.1t-9.907,3.547H3203v-26.183h8.848q6.156,0,9.506,3.223t3.348,9.313" transform="translate(-3202.997 -1047.164)"/><path class="a" d="M3259.206,1073.428h6.582v-26.292h-6.582Z" transform="translate(-3214.591 -1047.135)"/><path class="a" d="M3277.413,1065.288a8.861,8.861,0,0,0,.656,3.834,2.274,2.274,0,0,0,2.2,1.319,2.211,2.211,0,0,0,2.164-1.319,9.173,9.173,0,0,0,.63-3.834,8.7,8.7,0,0,0-.639-3.775,2.5,2.5,0,0,0-4.36-.01,8.51,8.51,0,0,0-.656,3.784m12.354,0q0,4.791-2.516,7.471a9.192,9.192,0,0,1-7.044,2.681,9.009,9.009,0,0,1-6.908-2.741,10.4,10.4,0,0,1-2.568-7.411q0-4.776,2.516-7.422a9.282,9.282,0,0,1,7.063-2.646,9.87,9.87,0,0,1,4.964,1.225,8.267,8.267,0,0,1,3.325,3.508,11.549,11.549,0,0,1,1.169,5.335" transform="translate(-3216.968 -1048.803)"/><path class="a" d="M3298.011,1075.186h6.583v-19.53h-6.583Z" transform="translate(-3222.594 -1048.893)"/><path class="a" d="M3298.011,1051.536h6.583v-4.4h-6.583Z" transform="translate(-3222.594 -1047.135)"/><path class="a" d="M3320.315,1068.609a9.59,9.59,0,0,0,3.181-.674v4.914a12.714,12.714,0,0,1-2.533.835,13.928,13.928,0,0,1-2.82.251q-3.315,0-4.781-1.664a7.58,7.58,0,0,1-1.463-5.109v-8.051h-2.305v-5.049h2.305v-4.987l6.633-1.154v6.141h4.2v5.049h-4.2v7.6q0,1.9,1.782,1.9" transform="translate(-3224.984 -1047.297)"/><path class="a" d="M3339.507,1068.609a9.591,9.591,0,0,0,3.182-.674v4.914a12.7,12.7,0,0,1-2.533.835,13.926,13.926,0,0,1-2.821.251q-3.314,0-4.779-1.664a7.567,7.567,0,0,1-1.465-5.109v-8.051h-2.306v-5.049h2.306V1049l6.632-1.078v6.141h4.2v5.049h-4.2v7.6q0,1.9,1.784,1.9" transform="translate(-3228.942 -1047.297)"/><path class="a" d="M3355.008,1062.91a3.569,3.569,0,0,1,.917-2.354,2.707,2.707,0,0,1,1.944-.749,2.543,2.543,0,0,1,2.011.846,3.392,3.392,0,0,1,.782,2.257h-5.655Zm9.282-5.386a9.111,9.111,0,0,0-6.656-2.3,9.013,9.013,0,0,0-6.97,2.646q-2.44,2.646-2.441,7.593,0,4.791,2.635,7.386t7.4,2.595a21.6,21.6,0,0,0,3.937-.311,11.4,11.4,0,0,0,3.178-1.11l-1.011-4.4a13.969,13.969,0,0,1-2.127.694,14.112,14.112,0,0,1-3.188.337,4.508,4.508,0,0,1-3-.93,3.384,3.384,0,0,1-1.17-2.569h11.766v-3q0-4.327-2.348-6.628" transform="translate(-3232.952 -1048.803)"/><path class="a" d="M3239.586,1062.91a3.572,3.572,0,0,1,.917-2.354,2.7,2.7,0,0,1,1.945-.749,2.544,2.544,0,0,1,2.01.846,3.4,3.4,0,0,1,.783,2.257Zm9.283-5.386a9.114,9.114,0,0,0-6.657-2.3,9.005,9.005,0,0,0-6.969,2.646q-2.441,2.646-2.442,7.593,0,4.791,2.636,7.386t7.4,2.595a21.6,21.6,0,0,0,3.937-.311,11.426,11.426,0,0,0,3.18-1.11l-1.013-4.4a12.984,12.984,0,0,1-5.315,1.031,4.509,4.509,0,0,1-3-.93,3.377,3.377,0,0,1-1.17-2.569h11.766v-3q0-4.327-2.347-6.628" transform="translate(-3209.145 -1048.803)"/></g></svg>