<svg xmlns="http://www.w3.org/2000/svg" width="495" height="360" viewBox="0 0 495 360"><defs><style>.a{fill:#e0f7ed;}.b{fill:#f4d9b4;}.c{fill:#f97910;}.d{fill:#2d2208;}.e{fill:#402121;}.f{fill:#ffd95e;}.g{fill:#f9e9d3;}.h{fill:#99ad23;}.i{fill:#ffbf7a;}.j{opacity:0.2;isolation:isolate;}</style></defs><g transform="translate(-14.61 -9)"><g transform="translate(152.226 9)"><rect class="a" width="1.212" height="3.635" transform="translate(43.256 120.384) rotate(-117.132)"/><path class="b" d="M47.709,221.153q0,.568.036,1.126a17.061,17.061,0,0,0,1.6,6.193l.023.047c.043.09.087.18.131.27a16.831,16.831,0,0,0,.908,1.6,17.144,17.144,0,0,0,14.068,7.917l-.169,9.758L62.091,246.9l-.4.751,2.592,1.365-.317,18.123,0,.242,1.711.381,0-.243-.539-29.212a17.108,17.108,0,0,0,12.1-5.266c.108-.111.215-.227.319-.341l.012-.013a17.192,17.192,0,0,0,3.126-4.837l-.052.056a17.163,17.163,0,0,0-8.137-22.115l-.179-.088a17.176,17.176,0,0,0-22.252,6.755c-.1.176-.205.355-.3.536A17.067,17.067,0,0,0,47.709,221.153Z" transform="translate(242.516 -60.338)"/><circle class="c" cx="22.49" cy="22.49" r="22.49" transform="translate(270.044 123.21)"/><path class="d" d="M92.646,269.615l2.3-.644,0-.247-.688-37.41-.034-1.865v-.054l-.12-6.536-.174-9.473h0l-.118-6.421h-.063l-.121,6.957-.158,9.055-.113,6.425v.048l0,.265h0l-.218,12.524-.023,1.244-.451,25.886Z" transform="translate(198.672 -61.261)"/><rect class="d" width="4.201" height="1.112" transform="matrix(-0.885, -0.466, 0.466, -0.885, 292.095, 182.39)"/><path class="e" d="M.994,100.764a572.855,572.855,0,0,1,85.181,1.31c13.65,1.233,27.518,2.566,40.916,5.544,10.791,2.4,23.317,6.452,30.041,15.894a15.342,15.342,0,0,1,2.4,13.431c-1.6,5.383-5.592,9.862-9.839,13.371-9.776,8.077-21.906,12.776-32.741,19.192C97.165,181.221,79.061,197.011,67.44,217.07c-5.114,8.826-9.978,20.563-4.283,30.289,5.578,9.528,18.031,12.81,28.186,14.358,12.729,1.94,25.84,1.415,38.622.328a402.3,402.3,0,0,0,41.747-6.114c27.034-5.191,53.821-11.794,81.23-14.8a235.2,235.2,0,0,1,41.415-1.2c12.476.841,25.058,2.815,36.778,7.313,9.031,3.467,18.658,8.711,23.536,17.457,4.7,8.431,2.868,18.154-2.252,25.932-6.16,9.36-15.767,15.773-25.756,20.461-11.372,5.337-23.536,8.8-35.715,11.739-6.177,1.492-12.387,2.841-18.6,4.184-1.3.279-1.85-1.71-.549-1.991,12.525-2.706,25.086-5.422,37.3-9.34,11.3-3.625,22.869-8.269,32.124-15.882,7.488-6.158,14.608-15.155,14.166-25.382-.446-10.31-9.1-17.509-17.576-21.941-10.6-5.538-22.635-8.235-34.432-9.645a209.191,209.191,0,0,0-40.673-.553c-27.345,2.081-54.078,8.31-80.888,13.743-26.046,5.278-52.9,10.166-79.6,8.812-10.579-.537-21.915-2.053-31.257-7.393a24.884,24.884,0,0,1-10.307-10.381,23.248,23.248,0,0,1-1.777-13.659c1.515-10.166,7.554-19.594,13.578-27.692a133.825,133.825,0,0,1,22.81-23.629,179.989,179.989,0,0,1,30.183-19.662c5.67-2.985,11.421-5.856,16.825-9.314,5.182-3.316,10.293-7.305,13.457-12.687,2.737-4.656,3.239-9.969.388-14.69-2.883-4.776-7.85-8.106-12.749-10.54-11.8-5.864-25.523-7.433-38.435-9.042a568.55,568.55,0,0,0-83.6-4.168q-10.183.24-20.353.843c-1.327.078-1.323-1.987,0-2.065Z" transform="translate(0 -27.85)"/><g transform="translate(7.488 13.74)"><circle class="f" cx="18.01" cy="18.01" r="18.01" transform="translate(62.876 0)"/><path class="g" d="M364.656,68.248h63.376a1.245,1.245,0,0,0,.237-.019L398.294,16.313a2.1,2.1,0,0,0-3.653,0L374.526,51.152l-.964,1.666Z" transform="translate(-329.371 -15.247)"/><path class="b" d="M428.7,75.176h54.814L472.893,59.748l-.764-1.112L458.288,38.53a2.8,2.8,0,0,0-4.16-.248,2.387,2.387,0,0,0-.2.248Z" transform="translate(-428.701 -22.175)"/></g><path class="b" d="M315.092,265.235c-6.007,3-9.664,6.968-9.664,11.317,0,9.369,16.954,16.964,37.868,16.964a71.12,71.12,0,0,0,23.962-3.83c-6.933,3.466-17,5.648-28.2,5.648-20.913,0-37.868-7.6-37.868-16.965C301.187,273.074,306.606,268.346,315.092,265.235Z" transform="translate(-217.187 -79.424)"/><path class="b" d="M326.561,274.585c-6.779,3.388-10.905,7.863-10.905,12.77,0,10.572,19.13,19.142,42.729,19.142a80.255,80.255,0,0,0,27.039-4.321c-7.823,3.91-19.18,6.372-31.824,6.372-23.6,0-42.729-8.57-42.729-19.143C310.87,283.431,316.985,278.1,326.561,274.585Z" transform="translate(-242.017 -82.338)"/><path class="b" d="M325.948,269.353c-4.232,2.115-6.809,4.909-6.809,7.974,0,6.6,11.944,11.952,26.678,11.952a50.11,50.11,0,0,0,16.882-2.7c-4.885,2.441-11.975,3.979-19.87,3.979-14.734,0-26.679-5.352-26.679-11.953C316.151,274.876,319.968,271.545,325.948,269.353Z" transform="translate(-222.928 -80.707)"/><circle class="c" cx="7.271" cy="7.271" r="7.271" transform="translate(252.772 292.252)"/><path class="c" d="M20.249,16.8.4,19.01a.358.358,0,0,1-.367-.5L8.042.214A.358.358,0,0,1,8.658.146L20.5,16.232A.358.358,0,0,1,20.249,16.8Z" transform="matrix(-0.998, -0.07, 0.07, -0.998, 125.225, 188.622)"/><path class="c" d="M32.51,17.3c-.843.295-11.874,4.543-19.54,1.565-.121-.042-.242-.088-.364-.141l-.06-.029c-.02-.009-.042-.016-.062-.025v0C4.882,15.241.39,3.915.029,3.083A.353.353,0,0,1,.237,2.61c.74-.268,12.268-4.664,19.9-1.423l0,0,.061.029.062.025c.116.051.226.106.334.164,7.36,3.593,11.817,14.717,12.117,15.431A.352.352,0,0,1,32.51,17.3Z" transform="matrix(-0.998, -0.07, 0.07, -0.998, 105.691, 173.417)"/><path class="h" d="M11.368,9.432.223,10.672a.2.2,0,0,1-.206-.28L4.515.12A.2.2,0,0,1,4.861.082l6.647,9.031A.2.2,0,0,1,11.368,9.432Z" transform="translate(120.36 193.039) rotate(-49)"/><path class="h" d="M18.251,9.715c-.474.166-6.666,2.551-10.97.879-.068-.023-.136-.049-.2-.079L7.043,10.5l-.035-.014v0C2.74,8.557.219,2.2.016,1.731a.2.2,0,0,1,.117-.265c.415-.15,6.887-2.619,11.174-.8v0l.034.016.035.014c.065.028.127.059.188.092C15.7,2.8,18.2,9.048,18.367,9.449A.2.2,0,0,1,18.251,9.715Z" transform="translate(133.777 189.418) rotate(-49)"/><path class="e" d="M2025.359,285.978l6.038-5.712.33.036a.509.509,0,0,1,.356.806l-7.187,9.832a.509.509,0,0,1-.876-.095L2019.1,279.7a.509.509,0,0,1,.52-.712l.293.031,4.678,6.871A.509.509,0,0,0,2025.359,285.978Z" transform="translate(-1986.69 -278.989)"/><path class="e" d="M2074.736,310.679l10.141-9.595.554.06a.854.854,0,0,1,.6,1.354l-12.071,16.514a.855.855,0,0,1-1.472-.159l-8.266-18.711a.854.854,0,0,1,.873-1.195l.491.053,7.857,11.539A.854.854,0,0,0,2074.736,310.679Z" transform="translate(-2056.658 -291.882)"/></g><g transform="translate(14.61 126.265)"><path class="h" d="M541.132,625.6s8.4-20.67-16.794-36.173Z" transform="translate(-339.869 -383.943)"/><path class="h" d="M476.694,636.21s2.562-14.733,22.388-14.606Z" transform="translate(-265.103 -394.933)"/><path class="h" d="M817.824,619.571s11.095-27.308-22.187-47.789Z" transform="translate(-795.637 -377.918)"/><path class="h" d="M732.694,633.593s3.384-19.464,29.578-19.3" transform="translate(-696.862 -392.438)"/><path class="i" d="M686.952,612.537l6.439,2.392,12.292-23.7-9.5-3.531Z" transform="translate(-610.155 -383.355)"/><path class="i" d="M603.768,621.831h6.869l3.268-26.5H603.767Z" transform="translate(-463.601 -385.962)"/><path class="d" d="M634.7,354.18l2.242-4.483,19.05,9.526-.56,3.922,3.642,4.763s6.163,3.362,5.043,14.568L663,393.122l-1.4,13.727,9.805,33.9,5.043,44.825,3.642,36.14-17.65-.84-16.249-58.833L617.61,525.354,598,520.312l26.895-62.755,3.362-26.335s-2.241-14.008,8.4-23.533l-1.68-5.043v-6.214l-5.6-29.646Z" transform="translate(-525.982 -302.071)"/><rect class="j" width="45.409" height="0.658" transform="matrix(-0.271, -0.962, 0.962, -0.271, 119.886, 160.058)"/><rect class="h" width="27.455" height="2.802" transform="translate(109.277 104.778)"/><ellipse class="h" cx="1.121" cy="2.802" rx="1.121" ry="2.802" transform="translate(135.612 103.658)"/><circle class="i" cx="14.935" cy="14.935" r="14.935" transform="translate(109.416 16.822)"/><circle class="d" cx="13.213" cy="13.213" r="13.213" transform="translate(88.284)"/><path class="d" d="M664.763,295.285a13.214,13.214,0,1,0,25.775,5.419,13.214,13.214,0,0,1-25.775-5.419Z" transform="translate(-580.033 -283.488)"/><path class="d" d="M647.155,312.112a15.622,15.622,0,1,1-9.322-12.576c2.609-2.1,5.844-1.452,8.474.768,2.974,2.511,3.857,4.236,6.163,8.366C650.2,308.988,649.422,311.794,647.155,312.112Z" transform="translate(-510.227 -284.501)"/><path class="c" d="M662.793,375.67c.167,4.426.5,13.139.5,13.583,0,.469,6.6,14.145,9.458,20.03v0c.2.415.385.791.546,1.122a2.653,2.653,0,0,0,2.438,1.5l12.47-.224a2.658,2.658,0,0,0,2.612-2.59l1.391-54.861a1.356,1.356,0,0,0-1.322-1.39H674.77a3.615,3.615,0,0,0-3.253,2.041L663.8,370.85a10.206,10.206,0,0,0-1.005,4.82Z" transform="translate(-580.765 -303.144)"/><path class="c" d="M637.464,406.622a35.7,35.7,0,0,0,8.521-7.2,39.513,39.513,0,0,0,9.848-22.973c.634-7.291-.813-12.711-4.3-16.108a14.192,14.192,0,0,0-10.721-3.662l-.27.031-4.088,3.459,1.157,1.367,3.657-3.095a12.5,12.5,0,0,1,9.029,3.2c3.074,3.006,4.335,7.937,3.751,14.656a37.739,37.739,0,0,1-9.356,21.885,34.677,34.677,0,0,1-8.093,6.875Z" transform="translate(-527.196 -304.438)"/><rect class="d" width="22.243" height="0.597" transform="translate(108.732 86.401) rotate(-168.394)"/><rect class="d" width="0.597" height="34.698" transform="translate(100.605 84.378) rotate(-177.663)"/><path class="d" d="M692.342,386.2c.167,4.426.5,13.139.5,13.583,0,.469,6.6,14.145,9.458,20.03l-5.319-30.882a6.808,6.808,0,0,0-4.42-5.25A9.992,9.992,0,0,0,692.342,386.2Z" transform="translate(-610.314 -313.679)"/><path class="i" d="M644.539,474.255a5.252,5.252,0,0,1,1.709-7.873l-1.081-11.957,7.106-2.429,1.289,16.908a5.282,5.282,0,0,1-9.023,5.352Z" transform="translate(-529.834 -337.008)"/><path class="b" d="M643.863,432.252l12.592-.456-.533-60.727a8.2,8.2,0,0,0-5.554-7.8,7.445,7.445,0,0,0-4.683,0,8.2,8.2,0,0,0-5.546,8.39Z" transform="translate(-530.086 -306.576)"/><path class="h" d="M445.659,645.317H696.539a.658.658,0,0,0,0-1.317H445.659a.658.658,0,0,0,0,1.317Z" transform="translate(-442.349 -402.583)"/><path class="e" d="M688.912,629.643l20.763,7.714.1-.263a8.622,8.622,0,0,0-5.078-11.084h0L692.012,621.3Z" transform="translate(-616.076 -394.83)"/><path class="e" d="M587.335,641.069h22.15v-.28a8.622,8.622,0,0,0-8.621-8.621H587.334Z" transform="translate(-448.359 -398.542)"/></g></g></svg>