<svg xmlns="http://www.w3.org/2000/svg" width="59.713" height="59.713" viewBox="0 0 59.713 59.713"><defs><style>.a{fill:#f97910;}</style></defs><path class="a" d="M26.241,299.581h-.583v-5.831A1.749,1.749,0,0,0,23.908,292H16.328a1.749,1.749,0,0,0-1.749,1.749v2.135a1.882,1.882,0,0,1-1.653,1.945,1.75,1.75,0,0,1-1.846-1.747v-2.333A1.749,1.749,0,0,0,9.33,292H1.749A1.749,1.749,0,0,0,0,293.749v17.494a6.422,6.422,0,0,0,6.414,6.414H23.908a1.749,1.749,0,0,0,1.749-1.749v-5.831h.583a5.248,5.248,0,0,0,0-10.5Zm0,7H23.908a1.749,1.749,0,0,0-1.749,1.749v5.831H6.414A2.919,2.919,0,0,1,3.5,311.243V295.5H7.581v.583a5.271,5.271,0,0,0,1.636,3.807,5.2,5.2,0,0,0,3.892,1.434,5.351,5.351,0,0,0,4.969-5.439V295.5h4.082v5.831a1.749,1.749,0,0,0,1.749,1.749h2.333a1.749,1.749,0,0,1,0,3.5Z" transform="translate(0 -257.945)"/><path class="a" d="M149.817,6.414A6.422,6.422,0,0,0,143.4,0H108.414A6.422,6.422,0,0,0,102,6.415V23.908a1.749,1.749,0,0,0,1.749,1.749h5.831v.583a5.248,5.248,0,0,0,10.5,0v-.583h4.082v5.831a1.749,1.749,0,0,0,1.749,1.749h2.135a1.882,1.882,0,0,1,1.945,1.653,1.75,1.75,0,0,1-1.747,1.846h-2.333a1.749,1.749,0,0,0-1.749,1.749v7.581a1.749,1.749,0,0,0,1.749,1.749H143.4a6.422,6.422,0,0,0,6.414-6.414ZM127.658,9.33V3.5H143.4a2.919,2.919,0,0,1,2.916,2.916V22.159h-4.082v-.583a5.271,5.271,0,0,0-1.636-3.807,5.208,5.208,0,0,0-3.892-1.434,5.352,5.352,0,0,0-4.969,5.439v.385h-4.082V16.328a1.749,1.749,0,0,0-1.749-1.749h-2.135a1.882,1.882,0,0,1-1.945-1.653,1.75,1.75,0,0,1,1.747-1.846h2.333a1.749,1.749,0,0,0,1.749-1.749Zm-9.33,12.829a1.749,1.749,0,0,0-1.749,1.749v2.333a1.749,1.749,0,0,1-3.5,0V23.908a1.749,1.749,0,0,0-1.749-1.749H105.5V6.415A2.919,2.919,0,0,1,108.414,3.5h15.745V7.581h-.583a5.271,5.271,0,0,0-3.807,1.636,5.206,5.206,0,0,0-1.434,3.892,5.351,5.351,0,0,0,5.439,4.969h.385v4.082ZM143.4,44.318H127.658V40.236h.583a5.271,5.271,0,0,0,3.807-1.636,5.206,5.206,0,0,0,1.434-3.892,5.352,5.352,0,0,0-5.439-4.969h-.385V25.658h5.831a1.749,1.749,0,0,0,1.749-1.749V21.774a1.883,1.883,0,0,1,1.653-1.945,1.75,1.75,0,0,1,1.846,1.747v2.333a1.749,1.749,0,0,0,1.749,1.749h5.831V41.4A2.919,2.919,0,0,1,143.4,44.318Z" transform="translate(-90.104 0)"/></svg>