<svg xmlns="http://www.w3.org/2000/svg" width="31.471" height="30.745" viewBox="0 0 31.471 30.745"><defs><style>.a{fill:#e56b06;}</style></defs><path class="a" d="M727.552,496.384c-5.544.347-20.8,8.434-14.9,22.644S742.4,527,742.779,513.483,733.1,496.038,727.552,496.384Zm6.236,22.729a1.615,1.615,0,0,1-1.615,1.616h-11.85a1.616,1.616,0,0,1-1.616-1.616V507.264a1.616,1.616,0,0,1,1.616-1.616h9.965a.808.808,0,0,1,.571,1.379l-.539.539a.808.808,0,0,1-.571.236h-8.887v10.773h10.772v-4.856a.808.808,0,0,1,.236-.571l.539-.539a.808.808,0,0,1,1.379.571Zm3.831-10.846a.67.67,0,0,1-1.142.473l-1-1-6.789,6.789a.669.669,0,0,1-.946,0h0l-.631-.632a.668.668,0,0,1,0-.945h0l6.789-6.79-.995-.995a.67.67,0,0,1,.473-1.142h3.568a.669.669,0,0,1,.669.669Z" transform="translate(-711.319 -496.363)"/></svg>