<svg xmlns="http://www.w3.org/2000/svg" width="59.713" height="59.713" viewBox="0 0 59.713 59.713"><defs><style>.a{fill:#f97910;}</style></defs><g transform="translate(0 0)"><path class="a" d="M419.067,377.188a2.333,2.333,0,0,0-3.264.479c-.423.568-.875,1.126-1.345,1.657a2.332,2.332,0,1,0,3.5,3.09c.556-.629,1.092-1.289,1.593-1.963A2.332,2.332,0,0,0,419.067,377.188Z" transform="translate(-365.605 -332.79)"/><path class="a" d="M465.937,286.478a2.333,2.333,0,0,0-2.775,1.783c-.151.692-.333,1.386-.542,2.062a2.332,2.332,0,1,0,4.457,1.377c.248-.8.464-1.625.643-2.447A2.333,2.333,0,0,0,465.937,286.478Z" transform="translate(-408.574 -253.02)"/><path class="a" d="M337.3,442.49c-.619.346-1.261.669-1.906.96a2.333,2.333,0,1,0,1.92,4.252c.765-.346,1.526-.729,2.26-1.139a2.332,2.332,0,0,0-2.274-4.073Z" transform="translate(-295.07 -390.622)"/><path class="a" d="M166.04,78.333V96.027l-8.553,8.553a2.333,2.333,0,0,0,3.3,3.3l9.236-9.236a2.333,2.333,0,0,0,.683-1.649V78.333a2.333,2.333,0,1,0-4.665,0Z" transform="translate(-138.516 -67.136)"/><path class="a" d="M57.38,5.015a2.332,2.332,0,0,0-2.333,2.333v6.477A29.858,29.858,0,1,0,29.856,59.713l.058,0,.058,0c.841,0,1.69-.035,2.523-.105a2.332,2.332,0,1,0-.389-4.649c-.7.059-1.423.089-2.134.089l-.058,0-.058,0a25.191,25.191,0,1,1,21.685-38.02H45.128a2.333,2.333,0,0,0,0,4.665h7.121A7.419,7.419,0,0,0,56.13,20.6a2.328,2.328,0,0,0,.209-.134,7.462,7.462,0,0,0,3.374-6.239V7.347A2.332,2.332,0,0,0,57.38,5.015Z" transform="translate(0 0)"/></g></svg>