<svg xmlns="http://www.w3.org/2000/svg" width="60" height="60" viewBox="0 0 60 60"><defs><style>.a{fill:#f97910;}</style></defs><path class="a" d="M1.758,323.74H19.7a1.758,1.758,0,0,0,1.758-1.758v-1.958a10.736,10.736,0,0,0-5.611-9.427,7.031,7.031,0,1,0-10.232,0A10.736,10.736,0,0,0,0,320.024v1.958a1.758,1.758,0,0,0,1.758,1.758Zm5.454-17.959a3.516,3.516,0,1,1,3.516,3.516A3.52,3.52,0,0,1,7.212,305.781Zm3.516,7.031a7.218,7.218,0,0,1,7.211,7.412H3.516A7.221,7.221,0,0,1,10.727,312.813Z" transform="translate(0 -263.74)"/><path class="a" d="M344.767,310.6a7.031,7.031,0,1,0-10.232,0,10.736,10.736,0,0,0-5.611,9.427v1.958a1.758,1.758,0,0,0,1.758,1.758H348.62a1.758,1.758,0,0,0,1.758-1.758v-1.958A10.736,10.736,0,0,0,344.767,310.6Zm-8.632-4.816a3.516,3.516,0,1,1,3.516,3.516A3.52,3.52,0,0,1,336.135,305.781Zm10.727,14.443H332.44a7.214,7.214,0,1,1,14.423,0Z" transform="translate(-290.378 -263.74)"/><path class="a" d="M185.916,23.232V21.274a10.736,10.736,0,0,0-5.611-9.427,7.031,7.031,0,1,0-10.232,0,10.736,10.736,0,0,0-5.611,9.427v1.958a1.758,1.758,0,0,0,1.758,1.758h17.939A1.758,1.758,0,0,0,185.916,23.232Zm-14.243-16.2a3.516,3.516,0,1,1,3.516,3.516A3.52,3.52,0,0,1,171.673,7.031ZM182.4,21.475H167.978a7.214,7.214,0,1,1,14.423,0Z" transform="translate(-145.189)"/><path class="a" d="M192.686,378.383a23.355,23.355,0,0,1-14.16.075,1.758,1.758,0,1,0-1.06,3.352,26.871,26.871,0,0,0,16.318-.087,1.758,1.758,0,1,0-1.1-3.34Z" transform="translate(-155.584 -333.964)"/><path class="a" d="M59.432,120.6a26.873,26.873,0,0,0-7.71,14.382,1.758,1.758,0,1,0,3.459.63,23.357,23.357,0,0,1,6.691-12.48,1.758,1.758,0,1,0-2.44-2.531Z" transform="translate(-45.636 -106.035)"/><path class="a" d="M371.837,120.6a1.758,1.758,0,1,0-2.44,2.531,23.356,23.356,0,0,1,6.691,12.48,1.758,1.758,0,0,0,3.459-.63,26.873,26.873,0,0,0-7.71-14.382Z" transform="translate(-325.634 -106.034)"/></svg>