<svg xmlns="http://www.w3.org/2000/svg" width="32.471" height="31.744" viewBox="0 0 32.471 31.744"><defs><style>.a{fill:#e56b06;stroke:rgba(0,0,0,0);stroke-miterlimit:10;}</style></defs><path class="a" d="M812.324,321.744a15.312,15.312,0,0,1-7.65-1.916,12.425,12.425,0,0,1-5.339-6.164,15.734,15.734,0,0,1-1.279-7.484,13.755,13.755,0,0,1,2.08-6.066,20.408,20.408,0,0,1,7.1-6.612,17.882,17.882,0,0,1,6.994-2.481c.219-.014.447-.021.677-.021a14.692,14.692,0,0,1,10.236,4.369,14.447,14.447,0,0,1,3.2,5.146,20.411,20.411,0,0,1,1.115,7.605,12.088,12.088,0,0,1-3.614,8.151,18.568,18.568,0,0,1-8.166,4.715v-9.634h3.487l.523-4.051H817.68v-2.586c0-1.184.341-1.972,2.007-1.972h2.144V299.12a29,29,0,0,0-3.124-.159c-3.213,0-5.209,2.051-5.209,5.353V307.3H810v4.051h3.5v10.355C813.1,321.732,812.7,321.744,812.324,321.744Zm1.647-.073v0l2.671-.419A19.936,19.936,0,0,1,813.971,321.672Zm2.7-.425v0c.337-.077.677-.164,1.01-.259v.1Z" transform="translate(-797.5 -290.5)"/></svg>