<svg xmlns="http://www.w3.org/2000/svg" width="31.47" height="30.745" viewBox="0 0 31.47 30.745"><defs><style>.a{fill:#e56b06;}</style></defs><path class="a" d="M652.873,454.061c-5.545.347-20.8,8.434-14.9,22.644s29.751,7.972,30.126-5.545S658.42,453.715,652.873,454.061Zm-4.251,23.251h-3.39V466.4h3.39Zm.263-14.369a1.973,1.973,0,1,1,0-.019ZM661.3,477.312h-3.383V472c0-1.267-.025-2.891-1.762-2.891-1.762,0-2.032,1.377-2.032,2.8v5.4h-3.386V466.395h3.247v1.486h.048a3.56,3.56,0,0,1,3.207-1.762c3.429,0,4.061,2.259,4.061,5.193Z" transform="translate(-636.639 -454.041)"/></svg>