<svg width="666" height="388" viewBox="0 0 666 388" fill="none" xmlns="http://www.w3.org/2000/svg">
<path d="M-17.0421 118.716C-17.0421 118.716 2.02186 114.24 -11.2199 71.6991C-11.2199 71.6991 -23.7002 73.4533 -27.1916 89.6674C-30.6831 105.882 -24.6193 112.096 -17.0421 118.716Z" fill="#99AD23"/>
<path d="M282.858 208.519L283.058 211.327C290.065 210.819 297.262 210.188 304.313 209.35C366.013 202.342 422.921 197.603 465.958 196.368L467.688 194.445C424.571 195.695 365.763 199.584 303.992 206.571C296.942 207.363 289.83 208.013 282.858 208.519Z" fill="#99AD23"/>
<path d="M15.3349 139.399C15.3349 139.399 47.4733 136.881 37.2131 92.9122C37.2131 92.9122 7.982 94.2722 6.46837 132.752L15.3349 139.399Z" fill="#99AD23"/>
<path d="M55.8347 163.203C55.8347 163.203 90.836 151.434 73.1378 108.612C73.1378 108.612 42.0071 113.339 46.1188 157.256L55.8347 163.203Z" fill="#99AD23"/>
<path d="M96.254 178.864C96.254 178.864 129.76 163.123 112.265 120.71C112.265 120.71 82.4023 136.154 89.3285 176.958L96.254 178.864Z" fill="#99AD23"/>
<path d="M135.628 193.594C135.628 193.594 170.417 177.915 152.82 137.066C152.82 137.066 120.507 156.685 129.007 191.771L135.628 193.594Z" fill="#99AD23"/>
<path d="M172.07 201.355C172.07 201.355 215.317 186.742 199.234 148.545C199.234 148.545 160.603 166.438 165.129 199.444L172.07 201.355Z" fill="#99AD23"/>
<path d="M215.528 207.169C215.528 207.169 258.903 190.899 239.554 152.839C239.554 152.839 199.678 175.25 208.896 205.343L215.528 207.169Z" fill="#99AD23"/>
<path d="M255.371 208.731C255.371 208.731 297.888 187.046 291.796 156.197C291.796 156.197 246.807 178.602 245.973 207.545L255.371 208.731Z" fill="#99AD23"/>
<path d="M293.846 207.604C293.846 207.604 345.282 183.248 337.122 158.636C337.122 158.636 297.612 176.138 285.26 208.069L293.846 207.604Z" fill="#99AD23"/>
<path d="M339.312 203.326C339.312 203.326 381.91 181.34 379.789 156.113C379.789 156.113 337.188 173.241 327.539 204.618L339.312 203.326Z" fill="#99AD23"/>
<path d="M381.716 199.757C381.716 199.757 423.796 174.063 422.214 157.425C422.214 157.425 379.175 172.475 374.07 199.269L381.716 199.757Z" fill="#99AD23"/>
<path d="M421.077 195.68C421.077 195.68 468.156 176.552 469.63 159.458C469.63 159.458 430 167.995 417.169 194.604L421.077 195.68Z" fill="#99AD23"/>
<path d="M473.149 193.827C473.149 193.827 510.213 175.668 514.063 161.41C514.063 161.41 468.539 171.267 463.133 192.23L473.149 193.827Z" fill="#99AD23"/>
<path d="M507.517 193.716L576.602 185.345C576.602 185.345 520.843 168.617 495.11 193.786L507.517 193.716Z" fill="#99AD23"/>
<path d="M578.81 202.219C578.81 202.219 631.756 212.237 635.276 216.149C635.276 216.149 597.198 186.078 555.871 196.093L578.81 202.219Z" fill="#99AD23"/>
<path d="M15.8026 140.588C15.8026 140.588 24.8951 171.505 -19.8635 177.57C-19.8635 177.57 -29.0007 149.797 6.43135 134.674L15.8026 140.588Z" fill="#99AD23"/>
<path d="M57.2734 164.496C57.2734 164.496 63.1208 200.96 17.0239 205.191C17.0239 205.191 6.73754 175.447 47.514 158.664L57.2734 164.496Z" fill="#99AD23"/>
<path d="M93.3517 179.681C93.3517 179.681 114.079 210.354 77.3409 237.835C77.3409 237.835 59.6034 209.287 86.4262 177.775L93.3517 179.681Z" fill="#99AD23"/>
<path d="M135.412 194.378C135.412 194.378 157.274 225.654 121.248 251.74C121.248 251.74 103.531 218.347 128.792 192.555L135.412 194.378Z" fill="#99AD23"/>
<path d="M171.038 201.071C171.038 201.071 207.335 228.807 179.916 259.8C179.916 259.8 149.024 230.496 163.869 200.662L171.038 201.071Z" fill="#99AD23"/>
<path d="M216.29 205.194C216.29 205.194 253.322 233.007 224.067 264.088C224.067 264.088 192.127 231.3 209.437 205.076L216.29 205.194Z" fill="#99AD23"/>
<path d="M256.112 205.171C256.112 205.171 299.867 224.213 295.671 255.375C295.671 255.375 249.405 235.769 246.801 206.926L256.112 205.171Z" fill="#99AD23"/>
<path d="M293.972 206.868C293.972 206.868 348.124 224.48 343.2 249.934C343.2 249.934 301.783 237.623 285.423 207.508L293.972 206.868Z" fill="#99AD23"/>
<path d="M341.584 201.173C341.584 201.173 385.178 221.169 384.213 246.464C384.213 246.464 340.828 231.348 329.778 200.435L341.584 201.173Z" fill="#99AD23"/>
<path d="M382.163 196.849C382.163 196.849 429.637 210.185 432.621 226.64C432.621 226.64 387.107 223.796 374.934 199.392L382.163 196.849Z" fill="#99AD23"/>
<path d="M421.898 194.719C421.898 194.719 470.301 210.23 473.048 227.176C473.048 227.176 432.895 221.653 418.073 196.09L421.898 194.719Z" fill="#99AD23"/>
<path d="M469.828 190.664C469.828 190.664 509.597 201.714 515.998 215.019C515.998 215.019 469.448 213.695 460.277 194.071L469.828 190.664Z" fill="#99AD23"/>
<path d="M509.13 195.523L572.536 224.206C572.536 224.206 514.322 223.46 497.322 191.728L509.13 195.523Z" fill="#99AD23"/>
<path d="M575.557 211.616C575.557 211.616 612.711 250.692 617.853 251.51C617.853 251.51 571.95 235.816 557.967 195.647L575.557 211.616Z" fill="#99AD23"/>
<path d="M589.57 212.089C589.57 212.089 645.886 254.82 647.85 267.687C647.85 267.687 639.421 226.471 591.96 210.474L589.57 212.089Z" fill="#99AD23"/>
<path d="M462.742 192.225L462.796 194.096C538.32 191.917 584.254 198.831 592.107 213.558L593.764 212.676C585.409 197.115 540.11 190.049 462.742 192.225Z" fill="#99AD23"/>
<path d="M-85.715 49.0674C-85.4242 49.5262 -55.9825 94.8733 3.9309 137.333C39.0023 162.202 77.7938 181.356 118.862 194.081C170.174 209.988 231.015 215.045 288.637 210.88L286.846 208.215C157.448 217.547 60.9938 173.135 6.23868 134.368C-53.1322 92.3231 -82.2378 47.4978 -82.5555 47.0447L-85.715 49.0674Z" fill="#99AD23"/>
</svg>
