<svg xmlns="http://www.w3.org/2000/svg" xmlns:xlink="http://www.w3.org/1999/xlink" width="467" height="142" viewBox="0 0 467 142"><defs><style>.a{fill:#fff;}.b{clip-path:url(#a);}.c{fill:#99ad23;}</style><clipPath id="a"><rect class="a" width="467" height="142" transform="translate(1453 3585)"/></clipPath></defs><g class="b" transform="translate(-1453 -3585)"><g transform="translate(1461.172 3755.45) rotate(-94)"><path class="c" d="M149.9,559.1s7.885-14.459,39.425,5.775c0,0-4.209,9.728-18.135,8.94S153.576,566.716,149.9,559.1Z" transform="translate(-72.905 13.306)"/><path class="c" d="M144.222,305.361l-2.232-.789c1.976-5.571,4.1-11.264,6.349-16.794,19.456-48.467,36-93.554,46.613-128.176l1.946-.973c-10.64,34.683-26.921,81.5-46.378,130.029C148.308,294.2,146.189,299.821,144.222,305.361Z" transform="translate(-73.094 3.809)"/><path class="c" d="M148.331,557.96s-16.384-1.864-17.941,35.574c0,0,10.373,2.161,17.736-9.687S152.447,565.354,148.331,557.96Z" transform="translate(-71.356 13.399)"/><path class="c" d="M138.61,529.155s9.216-25.5,42.579-7.363c0,0-7.629,23.4-39.169,16.036Z" transform="translate(-71.158 12.374)"/><path class="c" d="M128.59,491.852s17.357-25.754,48.129-1.843c0,0-10.783,24.187-45.477,11.049Z" transform="translate(-71.399 11.523)"/><path class="c" d="M125,456.4s20.245-23.655,50.73,0c0,0-19.19,20.767-50.73,6.042Z" transform="translate(-71.485 10.708)"/><path class="c" d="M121.92,422.027s20.48-24.709,49.675-1.321c0,0-23.122,21.822-49.675,7.1Z" transform="translate(-71.559 9.861)"/><path class="c" d="M123.72,391.626s21.5-31.806,48.886-10.24c0,0-23.133,27.331-48.886,16.292Z" transform="translate(-71.516 8.979)"/><path class="c" d="M128.59,355.916s22.877-31.54,49.419-7.352c0,0-27.075,27.331-49.419,13.138Z" transform="translate(-71.399 8.151)"/><path class="c" d="M136.067,324.123s27.075-29.635,50.73-17.808c0,0-28.212,31.478-51.866,25.693Z" transform="translate(-71.247 7.289)"/><path class="c" d="M145.374,294.045s31.232-36.271,49.368-24.157c0,0-23.01,28.13-51.662,31.017Z" transform="translate(-71.051 6.422)"/><path class="c" d="M158.706,258.9s27.341-29.635,47.32-22.283c0,0-23.4,30.72-51,31.54Z" transform="translate(-70.764 5.654)"/><path class="c" d="M170.721,226.112s30.229-28.386,43.367-23.389c0,0-21.812,31.54-44.678,29.7Z" transform="translate(-70.418 4.854)"/><path class="c" d="M182.5,196.007s26.02-33.905,40.213-31.284c0,0-15.77,30.229-40.213,34.694Z" transform="translate(-70.104 3.952)"/><path class="c" d="M195.342,155.048s23-26,35.421-25.938c0,0-18.156,34.714-36.363,34.417Z" transform="translate(-69.818 3.101)"/><path class="c" d="M202.966,128.52l22.211-54.15s1.116,48.948-25.037,64.2Z" transform="translate(-69.681 1.786)"/><path class="c" d="M211.714,70.087s3.7-45.169,1.311-48.9c0,0,15.882,37.592-1.464,68.865Z" transform="translate(-69.406 0.509)"/><path class="c" d="M138.66,528.268s-23.04-14.275-37.95,20.665c0,0,20.48,13.609,40.653-11.745Z" transform="translate(-72.068 12.617)"/><path class="c" d="M128.865,490.2S100.6,477.32,86.88,513.754c0,0,21.822,14.981,44.534-14.336Z" transform="translate(-72.4 11.719)"/><path class="c" d="M124.91,458.517s-20.245-23.655-50.73,0c0,0,19.19,20.757,50.73,6.042Z" transform="translate(-72.705 10.759)"/><path class="c" d="M122.415,422.027s-20.48-24.709-49.675-1.321c0,0,23.122,21.822,49.675,7.1Z" transform="translate(-72.74 9.861)"/><path class="c" d="M124.79,392.656S110.4,357.031,79.15,372.35c0,0,16.866,31.591,44.371,26.215Z" transform="translate(-72.586 8.85)"/><path class="c" d="M131.4,355.92s-14.285-36.24-46.019-19.456c0,0,19.456,33.219,44.586,25.037Z" transform="translate(-72.436 7.973)"/><path class="c" d="M139.768,324.845s-5.673-39.732-31.878-43.285c0,0,5.571,41.892,28.376,50.443Z" transform="translate(-71.896 6.762)"/><path class="c" d="M146.491,294.642S144.3,246.8,122.56,245.11c0,0,.737,36.332,21.5,56.321Z" transform="translate(-71.544 5.886)"/><path class="c" d="M161.458,258.068s-6.482-39.814-27.208-44.678c0,0,2.57,38.554,25.17,54.416Z" transform="translate(-71.263 5.124)"/><path class="c" d="M173.435,226.945s-.215-41.473-12.892-47.565c0,0-7.854,37.54,9.216,52.86Z" transform="translate(-70.675 4.308)"/><path class="c" d="M183.8,195.973s-1.772-42.712-14.9-48.723c0,0-4.485,33.792,12.933,51.518Z" transform="translate(-70.443 3.536)"/><path class="c" d="M197.393,158.766s-.082-34.714-9.441-42.875c0,0-9.319,38.042,4.547,49.859Z" transform="translate(-70.047 2.783)"/><path class="c" d="M202.115,126.936l-9.1-57.816s-12.391,47.371,9.544,68.24Z" transform="translate(-69.936 1.66)"/><path class="c" d="M204.1,70.483s-23.389-38.851-22.907-43.2c0,0,2.478,40.725,31.929,61.031Z" transform="translate(-70.136 0.655)"/><path class="c" d="M206.992,59.669S184.914,4.465,174.92,0c0,0,31.54,16.036,33.915,58.092Z" transform="translate(-70.286 0)"/><path class="c" d="M194.355,165.629l-1.505-.461c18.627-60.755,23.276-99.544,13.087-109.2l1.085-1.147C217.775,65.07,213.392,103.379,194.355,165.629Z" transform="translate(-69.856 1.316)"/><path class="c" d="M191.77,636.506c-.307-.338-30.505-34.335-51.559-92.4a342.2,342.2,0,0,1-20.357-105.863c-1.444-45.159,8.039-95.622,24.279-141.416l1.761,2.048C109.439,401.72,123.919,489.847,143.129,542.9c20.839,57.529,50.689,91.137,50.986,91.5Z" transform="translate(-73.629 7.128)"/></g></g></svg>