<svg xmlns="http://www.w3.org/2000/svg" xmlns:xlink="http://www.w3.org/1999/xlink" width="540" height="299" viewBox="0 0 540 299"><defs><style>.a{fill:#fff;}.b{clip-path:url(#a);}.c{fill:#f97910;}.d{fill:#99ad23;}</style><clipPath id="a"><rect class="a" width="540" height="299" transform="translate(1380 192)"/></clipPath></defs><g class="b" transform="translate(-1380 -192)"><g transform="translate(1617.163 455.142) rotate(-87)"><path class="c" d="M149.9,557.732s5.734-10.515,28.67,4.2c0,0-3.061,7.074-13.188,6.5S152.573,563.272,149.9,557.732Z" transform="translate(-93.909 -141.48)"/><path class="c" d="M143.613,265.333l-1.623-.573c1.437-4.051,2.979-8.191,4.617-12.212,14.149-35.245,26.182-68.032,33.9-93.209l1.415-.707c-7.737,25.222-19.577,59.268-33.726,94.557C146.585,257.216,145.043,261.3,143.613,265.333Z" transform="translate(-91.889 -40.504)"/><path class="c" d="M143.437,557.956s-11.915-1.355-13.046,25.87c0,0,7.543,1.571,12.9-7.045S146.43,563.333,143.437,557.956Z" transform="translate(-87.46 -142.464)"/><path class="c" d="M138.61,525.37s6.7-18.542,30.963-5.354c0,0-5.548,17.016-28.483,11.661Z" transform="translate(-89.559 -131.57)"/><path class="c" d="M128.59,488.575s12.622-18.728,35-1.34c0,0-7.841,17.589-33.071,8.035Z" transform="translate(-87.001 -122.521)"/><path class="c" d="M125,453.529s14.722-17.2,36.891,0c0,0-13.955,15.1-36.891,4.394Z" transform="translate(-86.084 -113.851)"/><path class="c" d="M121.92,418.921s14.893-17.969,36.124-.961c0,0-16.814,15.869-36.124,5.161Z" transform="translate(-85.298 -104.852)"/><path class="c" d="M123.72,386.787s15.638-23.129,35.55-7.447c0,0-16.822,19.875-35.55,11.848Z" transform="translate(-85.757 -95.467)"/><path class="c" d="M128.59,351.421s16.636-22.936,35.937-5.347c0,0-19.689,19.875-35.937,9.554Z" transform="translate(-87.001 -86.671)"/><path class="c" d="M135.757,318.5s19.689-21.55,36.891-12.95c0,0-20.515,22.891-37.717,18.684Z" transform="translate(-88.619 -77.502)"/><path class="c" d="M144.748,286.779s22.712-26.376,35.9-17.567c0,0-16.733,20.456-37.568,22.556Z" transform="translate(-90.7 -68.28)"/><path class="c" d="M157.7,252.5s19.882-21.551,34.411-16.2c0,0-17.016,22.34-37.084,22.936Z" transform="translate(-93.752 -60.118)"/><path class="c" d="M170.363,219.571s21.982-20.642,31.536-17.008c0,0-15.861,22.936-32.49,21.6Z" transform="translate(-97.423 -51.612)"/><path class="c" d="M182.5,187.433s18.922-24.656,29.243-22.75c0,0-11.468,21.982-29.243,25.229Z" transform="translate(-100.766 -42.023)"/><path class="c" d="M195.085,147.972s16.725-18.907,25.758-18.862c0,0-13.2,25.244-26.443,25.028Z" transform="translate(-103.804 -32.967)"/><path class="c" d="M202.2,113.748,218.347,74.37s.812,35.595-18.207,46.683Z" transform="translate(-105.27 -18.989)"/><path class="c" d="M211.672,56.748s2.688-32.847.953-35.558c0,0,11.55,27.337-1.065,50.079Z" transform="translate(-108.186 -5.411)"/><path class="c" d="M128.307,527.48s-16.755-10.381-27.6,15.027c0,0,14.893,9.9,29.563-8.541Z" transform="translate(-79.882 -134.149)"/><path class="c" d="M117.411,489.6s-20.553-9.368-30.531,17.127c0,0,15.869,10.895,32.385-10.425Z" transform="translate(-76.351 -124.602)"/><path class="c" d="M111.071,455.649s-14.722-17.2-36.891,0c0,0,13.955,15.094,36.891,4.393Z" transform="translate(-73.108 -114.392)"/><path class="c" d="M108.864,418.921s-14.893-17.969-36.124-.961c0,0,16.814,15.869,36.124,5.161Z" transform="translate(-72.74 -104.852)"/><path class="c" d="M112.34,386.073s-10.463-25.907-33.19-14.767c0,0,12.265,22.973,32.266,19.063Z" transform="translate(-74.377 -94.098)"/><path class="c" d="M118.845,349.4s-10.388-26.354-33.465-14.149c0,0,14.149,24.157,32.423,18.207Z" transform="translate(-75.967 -84.779)"/><path class="c" d="M131.071,313.037s-4.125-28.893-23.181-31.477c0,0,4.051,30.464,20.635,36.682Z" transform="translate(-81.715 -71.893)"/><path class="c" d="M139.963,281.129s-1.594-34.791-17.4-36.019c0,0,.536,26.421,15.638,40.956Z" transform="translate(-85.461 -62.586)"/><path class="c" d="M154.036,245.88s-4.714-28.952-19.786-32.49c0,0,1.869,28.037,18.3,39.571Z" transform="translate(-88.446 -54.486)"/><path class="c" d="M169.426,213.97s-.156-30.159-9.375-34.59c0,0-5.712,27.3,6.7,38.439Z" transform="translate(-94.699 -45.802)"/><path class="c" d="M179.6,182.681s-1.288-31.06-10.835-35.431c0,0-3.262,24.574,9.405,37.464Z" transform="translate(-97.161 -37.598)"/><path class="c" d="M193.982,147.069s-.06-25.244-6.866-31.179c0,0-6.776,27.664,3.306,36.258Z" transform="translate(-101.376 -29.591)"/><path class="c" d="M198.681,111.164l-6.62-42.044s-9.01,34.448,6.94,49.624Z" transform="translate(-102.56 -17.649)"/><path class="c" d="M197.846,58.7S180.838,30.445,181.188,27.28c0,0,1.8,29.615,23.219,44.382Z" transform="translate(-100.43 -6.966)"/><path class="c" d="M198.243,43.392S182.188,3.247,174.92,0c0,0,22.936,11.661,24.663,42.245Z" transform="translate(-98.83 0)"/><path class="c" d="M193.945,135.4l-1.095-.335c13.545-44.181,16.926-72.389,9.517-79.411l.789-.834C210.975,62.274,207.788,90.132,193.945,135.4Z" transform="translate(-103.409 -13.998)"/><path class="c" d="M172.112,543.842c-.223-.246-22.184-24.968-37.494-67.191a248.846,248.846,0,0,1-14.8-76.983c-1.05-32.84,5.846-69.537,17.656-102.838l1.281,1.489c-26.51,74.786-15.98,138.872-2.011,177.453,15.154,41.835,36.861,66.275,37.077,66.536Z" transform="translate(-86.2 -75.792)"/></g><g transform="translate(1393.734 401.46) rotate(-94)"><path class="d" d="M149.9,560.2s9.628-17.656,48.14,7.052c0,0-5.139,11.879-22.145,10.916S154.389,569.507,149.9,560.2Z" transform="translate(-55.883 138.744)"/><path class="d" d="M144.716,337.8l-2.726-.963c2.413-6.8,5-13.754,7.752-20.507,23.758-59.181,43.964-114.236,56.918-156.512l2.376-1.188c-12.992,42.351-32.873,99.519-56.63,158.776C149.7,324.17,147.117,331.035,144.716,337.8Z" transform="translate(-57.863 39.721)"/><path class="d" d="M152.3,557.964s-20.006-2.276-21.907,43.439c0,0,12.667,2.638,21.657-11.829S157.324,566.992,152.3,557.964Z" transform="translate(-58.305 139.709)"/><path class="d" d="M138.61,532.223s11.254-31.135,51.992-8.99c0,0-9.315,28.572-47.828,19.581Z" transform="translate(-56.246 129.025)"/><path class="d" d="M128.59,494.508s21.194-31.448,58.769-2.251c0,0-13.167,29.535-55.53,13.492Z" transform="translate(-58.755 120.151)"/><path class="d" d="M125,458.721s24.72-28.884,61.945,0c0,0-23.432,25.358-61.945,7.377Z" transform="translate(-59.654 111.648)"/><path class="d" d="M121.92,424.544s25.008-30.172,60.657-1.613c0,0-28.234,26.646-60.657,8.665Z" transform="translate(-60.425 102.824)"/><path class="d" d="M123.72,395.548s26.258-38.837,59.694-12.5c0,0-28.247,33.373-59.694,19.894Z" transform="translate(-59.975 93.621)"/><path class="d" d="M128.59,359.56s27.934-38.512,60.344-8.978c0,0-33.06,33.373-60.344,16.043Z" transform="translate(-58.755 84.995)"/><path class="d" d="M136.318,328.676s33.061-36.186,61.945-21.744c0,0-34.448,38.437-63.333,31.373Z" transform="translate(-57.168 76.003)"/><path class="d" d="M145.881,299.932s38.137-44.289,60.282-29.5c0,0-28.1,34.349-63.083,37.875Z" transform="translate(-55.127 66.959)"/><path class="d" d="M159.519,264.085S192.9,227.9,217.3,236.877c0,0-28.572,37.512-62.27,38.512Z" transform="translate(-52.135 58.955)"/><path class="d" d="M171.011,231.413s36.912-34.661,52.954-28.559c0,0-26.634,38.512-54.555,36.262Z" transform="translate(-48.534 50.614)"/><path class="d" d="M182.5,202.955s31.773-41.4,49.1-38.2c0,0-19.256,36.912-49.1,42.363Z" transform="translate(-45.256 41.21)"/><path class="d" d="M195.55,160.783s28.084-31.748,43.251-31.673c0,0-22.17,42.388-44.4,42.026Z" transform="translate(-42.277 32.329)"/><path class="d" d="M203.591,140.491,230.712,74.37s1.363,59.769-30.572,78.387Z" transform="translate(-40.839 18.622)"/><path class="d" d="M211.748,80.9s4.514-55.155,1.6-59.707c0,0,19.394,45.9-1.788,84.089Z" transform="translate(-37.98 5.306)"/><path class="d" d="M147.05,528.906s-28.134-17.431-46.34,25.233c0,0,25.008,16.618,49.641-14.342Z" transform="translate(-65.736 131.555)"/><path class="d" d="M138.146,490.69s-34.511-15.73-51.266,28.759c0,0,26.646,18.293,54.38-17.506Z" transform="translate(-69.199 122.192)"/><path class="d" d="M136.125,460.841s-24.72-28.884-61.945,0c0,0,23.432,25.345,61.945,7.377Z" transform="translate(-72.379 112.179)"/><path class="d" d="M133.4,424.544s-25.008-30.172-60.657-1.613c0,0,28.234,26.646,60.657,8.665Z" transform="translate(-72.74 102.824)"/><path class="d" d="M134.88,397.991s-17.568-43.5-55.73-24.8c0,0,20.594,38.575,54.18,32.01Z" transform="translate(-71.135 92.278)"/><path class="d" d="M141.573,361.2S124.13,316.951,85.38,337.445c0,0,23.758,40.563,54.442,30.572Z" transform="translate(-69.575 83.139)"/><path class="d" d="M146.815,334.414S139.888,285.9,107.89,281.56c0,0,6.8,51.154,34.649,61.595Z" transform="translate(-63.938 70.502)"/><path class="d" d="M151.782,305.592s-2.676-58.419-29.222-60.482c0,0,.9,44.364,26.258,68.772Z" transform="translate(-60.265 61.375)"/><path class="d" d="M167.473,267.945s-7.915-48.615-33.223-54.555c0,0,3.139,47.078,30.735,66.446Z" transform="translate(-57.338 53.432)"/><path class="d" d="M176.684,237.461s-.263-50.641-15.742-58.081c0,0-9.591,45.84,11.254,64.546Z" transform="translate(-51.206 44.916)"/><path class="d" d="M187.21,206.744s-2.163-52.154-18.193-59.494c0,0-5.477,41.263,15.793,62.907Z" transform="translate(-48.791 36.871)"/><path class="d" d="M200.158,168.244s-.1-42.389-11.529-52.354c0,0-11.379,46.452,5.552,60.882Z" transform="translate(-44.658 29.019)"/><path class="d" d="M204.9,139.717l-11.116-70.6s-15.13,57.843,11.654,83.326Z" transform="translate(-43.497 17.307)"/><path class="d" d="M209.163,80.034S180.6,32.594,181.192,27.28c0,0,3.026,49.728,38.987,74.524Z" transform="translate(-45.586 6.831)"/><path class="d" d="M214.082,72.861S187.124,5.452,174.92,0c0,0,38.512,19.581,41.413,70.935Z" transform="translate(-47.154 0)"/><path class="d" d="M194.688,190.126l-1.838-.563c22.745-74.186,28.421-121.551,15.98-133.342l1.325-1.4C223.285,67.336,217.933,114.114,194.688,190.126Z" transform="translate(-42.665 13.727)"/><path class="d" d="M207.7,711.6c-.375-.413-37.249-41.926-62.957-112.823A417.85,417.85,0,0,1,119.885,469.51c-1.763-55.143,9.816-116.762,29.647-172.68l2.151,2.5c-44.514,125.577-26.834,233.187-3.376,297.97,25.446,70.247,61.895,111.285,62.257,111.723Z" transform="translate(-63.442 74.326)"/></g></g></svg>